<svg xmlns="http://www.w3.org/2000/svg" xmlns:xlink="http://www.w3.org/1999/xlink" width="800" zoomAndPan="magnify" viewBox="0 0 600 449.999984" height="600" preserveAspectRatio="xMidYMid meet" version="1.0"><defs><clipPath id="67345544e8"><path d="M 363 266 L 469 266 L 469 372 L 363 372 Z M 363 266 " clip-rule="nonzero"/></clipPath><clipPath id="044208ccb7"><path d="M 463.003906 364.164062 L 461.851562 365.316406 C 454.226562 372.945312 441.738281 372.945312 434.109375 365.316406 L 363.699219 294.90625 L 392.59375 266.011719 L 463.003906 336.421875 C 470.632812 344.050781 470.632812 356.535156 463.003906 364.164062 " clip-rule="evenodd"/></clipPath><linearGradient x1="246.166499" gradientTransform="matrix(1.693966, 0, 0, 1.693966, 0.168114, -23.655339)" y1="139.437501" x2="183.040997" gradientUnits="userSpaceOnUse" y2="202.563003" id="617257baf2"><stop stop-opacity="1" stop-color="rgb(100%, 53.69873%, 37.599182%)" offset="0"/><stop stop-opacity="1" stop-color="rgb(100%, 53.646851%, 37.690735%)" offset="0.015625"/><stop stop-opacity="1" stop-color="rgb(100%, 53.533936%, 37.892151%)" offset="0.0234375"/><stop stop-opacity="1" stop-color="rgb(100%, 53.411865%, 38.1073%)" offset="0.03125"/><stop stop-opacity="1" stop-color="rgb(100%, 53.289795%, 38.322449%)" offset="0.0390625"/><stop stop-opacity="1" stop-color="rgb(100%, 53.16925%, 38.539124%)" offset="0.046875"/><stop stop-opacity="1" stop-color="rgb(100%, 53.04718%, 38.754272%)" offset="0.0546875"/><stop stop-opacity="1" stop-color="rgb(100%, 52.92511%, 38.969421%)" offset="0.0625"/><stop stop-opacity="1" stop-color="rgb(100%, 52.80304%, 39.18457%)" offset="0.0703125"/><stop stop-opacity="1" stop-color="rgb(100%, 52.680969%, 39.401245%)" offset="0.078125"/><stop stop-opacity="1" stop-color="rgb(100%, 52.560425%, 39.616394%)" offset="0.0859375"/><stop stop-opacity="1" stop-color="rgb(100%, 52.438354%, 39.831543%)" offset="0.09375"/><stop stop-opacity="1" stop-color="rgb(100%, 52.316284%, 40.046692%)" offset="0.101562"/><stop stop-opacity="1" stop-color="rgb(100%, 52.194214%, 40.263367%)" offset="0.109375"/><stop stop-opacity="1" stop-color="rgb(100%, 52.073669%, 40.478516%)" offset="0.117187"/><stop stop-opacity="1" stop-color="rgb(100%, 51.951599%, 40.693665%)" offset="0.125"/><stop stop-opacity="1" stop-color="rgb(100%, 51.829529%, 40.910339%)" offset="0.132812"/><stop stop-opacity="1" stop-color="rgb(100%, 51.707458%, 41.125488%)" offset="0.140625"/><stop stop-opacity="1" stop-color="rgb(100%, 51.586914%, 41.340637%)" offset="0.148437"/><stop stop-opacity="1" stop-color="rgb(100%, 51.464844%, 41.555786%)" offset="0.15625"/><stop stop-opacity="1" stop-color="rgb(100%, 51.342773%, 41.772461%)" offset="0.164062"/><stop stop-opacity="1" stop-color="rgb(100%, 51.220703%, 41.98761%)" offset="0.171875"/><stop stop-opacity="1" stop-color="rgb(100%, 51.100159%, 42.202759%)" offset="0.179687"/><stop stop-opacity="1" stop-color="rgb(100%, 50.978088%, 42.417908%)" offset="0.1875"/><stop stop-opacity="1" stop-color="rgb(100%, 50.856018%, 42.634583%)" offset="0.195312"/><stop stop-opacity="1" stop-color="rgb(100%, 50.733948%, 42.849731%)" offset="0.203125"/><stop stop-opacity="1" stop-color="rgb(100%, 50.613403%, 43.06488%)" offset="0.210937"/><stop stop-opacity="1" stop-color="rgb(100%, 50.491333%, 43.280029%)" offset="0.21875"/><stop stop-opacity="1" stop-color="rgb(100%, 50.369263%, 43.496704%)" offset="0.226562"/><stop stop-opacity="1" stop-color="rgb(100%, 50.247192%, 43.711853%)" offset="0.234375"/><stop stop-opacity="1" stop-color="rgb(100%, 50.126648%, 43.927002%)" offset="0.242187"/><stop stop-opacity="1" stop-color="rgb(100%, 50.004578%, 44.143677%)" offset="0.25"/><stop stop-opacity="1" stop-color="rgb(100%, 49.882507%, 44.358826%)" offset="0.257812"/><stop stop-opacity="1" stop-color="rgb(100%, 49.760437%, 44.573975%)" offset="0.265625"/><stop stop-opacity="1" stop-color="rgb(100%, 49.639893%, 44.789124%)" offset="0.273437"/><stop stop-opacity="1" stop-color="rgb(100%, 49.517822%, 45.005798%)" offset="0.28125"/><stop stop-opacity="1" stop-color="rgb(100%, 49.395752%, 45.220947%)" offset="0.289062"/><stop stop-opacity="1" stop-color="rgb(100%, 49.273682%, 45.436096%)" offset="0.296875"/><stop stop-opacity="1" stop-color="rgb(100%, 49.151611%, 45.651245%)" offset="0.304687"/><stop stop-opacity="1" stop-color="rgb(100%, 49.031067%, 45.86792%)" offset="0.3125"/><stop stop-opacity="1" stop-color="rgb(100%, 48.908997%, 46.083069%)" offset="0.320312"/><stop stop-opacity="1" stop-color="rgb(100%, 48.786926%, 46.298218%)" offset="0.328125"/><stop stop-opacity="1" stop-color="rgb(100%, 48.664856%, 46.514893%)" offset="0.335937"/><stop stop-opacity="1" stop-color="rgb(100%, 48.544312%, 46.730042%)" offset="0.34375"/><stop stop-opacity="1" stop-color="rgb(100%, 48.422241%, 46.94519%)" offset="0.351562"/><stop stop-opacity="1" stop-color="rgb(100%, 48.300171%, 47.160339%)" offset="0.359375"/><stop stop-opacity="1" stop-color="rgb(100%, 48.178101%, 47.377014%)" offset="0.367187"/><stop stop-opacity="1" stop-color="rgb(100%, 48.057556%, 47.592163%)" offset="0.375"/><stop stop-opacity="1" stop-color="rgb(100%, 47.935486%, 47.807312%)" offset="0.382812"/><stop stop-opacity="1" stop-color="rgb(100%, 47.813416%, 48.022461%)" offset="0.390625"/><stop stop-opacity="1" stop-color="rgb(100%, 47.691345%, 48.239136%)" offset="0.398437"/><stop stop-opacity="1" stop-color="rgb(100%, 47.570801%, 48.454285%)" offset="0.40625"/><stop stop-opacity="1" stop-color="rgb(100%, 47.44873%, 48.669434%)" offset="0.414062"/><stop stop-opacity="1" stop-color="rgb(100%, 47.32666%, 48.886108%)" offset="0.421875"/><stop stop-opacity="1" stop-color="rgb(100%, 47.20459%, 49.101257%)" offset="0.429687"/><stop stop-opacity="1" stop-color="rgb(100%, 47.084045%, 49.316406%)" offset="0.4375"/><stop stop-opacity="1" stop-color="rgb(100%, 46.961975%, 49.531555%)" offset="0.445312"/><stop stop-opacity="1" stop-color="rgb(100%, 46.839905%, 49.74823%)" offset="0.453125"/><stop stop-opacity="1" stop-color="rgb(100%, 46.717834%, 49.963379%)" offset="0.460937"/><stop stop-opacity="1" stop-color="rgb(100%, 46.59729%, 50.178528%)" offset="0.46875"/><stop stop-opacity="1" stop-color="rgb(100%, 46.47522%, 50.393677%)" offset="0.476562"/><stop stop-opacity="1" stop-color="rgb(100%, 46.353149%, 50.610352%)" offset="0.484375"/><stop stop-opacity="1" stop-color="rgb(100%, 46.231079%, 50.8255%)" offset="0.492187"/><stop stop-opacity="1" stop-color="rgb(100%, 46.110535%, 51.040649%)" offset="0.499996"/><stop stop-opacity="1" stop-color="rgb(100%, 46.0495%, 51.148987%)" offset="0.5"/><stop stop-opacity="1" stop-color="rgb(100%, 45.988464%, 51.257324%)" offset="0.500004"/><stop stop-opacity="1" stop-color="rgb(100%, 45.927429%, 51.365662%)" offset="0.507812"/><stop stop-opacity="1" stop-color="rgb(100%, 45.866394%, 51.472473%)" offset="0.515625"/><stop stop-opacity="1" stop-color="rgb(100%, 45.744324%, 51.687622%)" offset="0.523437"/><stop stop-opacity="1" stop-color="rgb(100%, 45.623779%, 51.902771%)" offset="0.53125"/><stop stop-opacity="1" stop-color="rgb(100%, 45.501709%, 52.119446%)" offset="0.539062"/><stop stop-opacity="1" stop-color="rgb(100%, 45.379639%, 52.334595%)" offset="0.546875"/><stop stop-opacity="1" stop-color="rgb(100%, 45.257568%, 52.549744%)" offset="0.554687"/><stop stop-opacity="1" stop-color="rgb(100%, 45.135498%, 52.764893%)" offset="0.5625"/><stop stop-opacity="1" stop-color="rgb(100%, 45.014954%, 52.981567%)" offset="0.570312"/><stop stop-opacity="1" stop-color="rgb(100%, 44.892883%, 53.196716%)" offset="0.578125"/><stop stop-opacity="1" stop-color="rgb(100%, 44.770813%, 53.411865%)" offset="0.585937"/><stop stop-opacity="1" stop-color="rgb(100%, 44.648743%, 53.627014%)" offset="0.59375"/><stop stop-opacity="1" stop-color="rgb(100%, 44.528198%, 53.843689%)" offset="0.601562"/><stop stop-opacity="1" stop-color="rgb(100%, 44.406128%, 54.058838%)" offset="0.609375"/><stop stop-opacity="1" stop-color="rgb(100%, 44.284058%, 54.273987%)" offset="0.617187"/><stop stop-opacity="1" stop-color="rgb(100%, 44.161987%, 54.490662%)" offset="0.625"/><stop stop-opacity="1" stop-color="rgb(100%, 44.041443%, 54.705811%)" offset="0.632812"/><stop stop-opacity="1" stop-color="rgb(100%, 43.919373%, 54.920959%)" offset="0.640625"/><stop stop-opacity="1" stop-color="rgb(100%, 43.797302%, 55.136108%)" offset="0.648437"/><stop stop-opacity="1" stop-color="rgb(100%, 43.675232%, 55.352783%)" offset="0.65625"/><stop stop-opacity="1" stop-color="rgb(100%, 43.554688%, 55.567932%)" offset="0.664062"/><stop stop-opacity="1" stop-color="rgb(100%, 43.432617%, 55.783081%)" offset="0.671875"/><stop stop-opacity="1" stop-color="rgb(100%, 43.310547%, 55.99823%)" offset="0.679687"/><stop stop-opacity="1" stop-color="rgb(100%, 43.188477%, 56.214905%)" offset="0.6875"/><stop stop-opacity="1" stop-color="rgb(100%, 43.067932%, 56.430054%)" offset="0.695312"/><stop stop-opacity="1" stop-color="rgb(100%, 42.945862%, 56.645203%)" offset="0.703125"/><stop stop-opacity="1" stop-color="rgb(100%, 42.823792%, 56.861877%)" offset="0.710937"/><stop stop-opacity="1" stop-color="rgb(100%, 42.701721%, 57.077026%)" offset="0.71875"/><stop stop-opacity="1" stop-color="rgb(100%, 42.581177%, 57.292175%)" offset="0.726562"/><stop stop-opacity="1" stop-color="rgb(100%, 42.459106%, 57.507324%)" offset="0.734375"/><stop stop-opacity="1" stop-color="rgb(100%, 42.337036%, 57.723999%)" offset="0.742187"/><stop stop-opacity="1" stop-color="rgb(100%, 42.214966%, 57.939148%)" offset="0.75"/><stop stop-opacity="1" stop-color="rgb(100%, 42.094421%, 58.154297%)" offset="0.757812"/><stop stop-opacity="1" stop-color="rgb(100%, 41.972351%, 58.369446%)" offset="0.765625"/><stop stop-opacity="1" stop-color="rgb(100%, 41.850281%, 58.586121%)" offset="0.773437"/><stop stop-opacity="1" stop-color="rgb(100%, 41.72821%, 58.80127%)" offset="0.78125"/><stop stop-opacity="1" stop-color="rgb(100%, 41.60614%, 59.016418%)" offset="0.789062"/><stop stop-opacity="1" stop-color="rgb(100%, 41.485596%, 59.233093%)" offset="0.796875"/><stop stop-opacity="1" stop-color="rgb(100%, 41.363525%, 59.448242%)" offset="0.804687"/><stop stop-opacity="1" stop-color="rgb(100%, 41.241455%, 59.663391%)" offset="0.8125"/><stop stop-opacity="1" stop-color="rgb(100%, 41.119385%, 59.87854%)" offset="0.820312"/><stop stop-opacity="1" stop-color="rgb(100%, 40.99884%, 60.095215%)" offset="0.828125"/><stop stop-opacity="1" stop-color="rgb(100%, 40.87677%, 60.310364%)" offset="0.835937"/><stop stop-opacity="1" stop-color="rgb(100%, 40.7547%, 60.525513%)" offset="0.84375"/><stop stop-opacity="1" stop-color="rgb(100%, 40.632629%, 60.740662%)" offset="0.851562"/><stop stop-opacity="1" stop-color="rgb(100%, 40.512085%, 60.957336%)" offset="0.859375"/><stop stop-opacity="1" stop-color="rgb(100%, 40.390015%, 61.172485%)" offset="0.867187"/><stop stop-opacity="1" stop-color="rgb(100%, 40.267944%, 61.387634%)" offset="0.875"/><stop stop-opacity="1" stop-color="rgb(100%, 40.145874%, 61.604309%)" offset="0.882812"/><stop stop-opacity="1" stop-color="rgb(100%, 40.02533%, 61.819458%)" offset="0.890625"/><stop stop-opacity="1" stop-color="rgb(100%, 39.903259%, 62.034607%)" offset="0.898437"/><stop stop-opacity="1" stop-color="rgb(100%, 39.781189%, 62.249756%)" offset="0.90625"/><stop stop-opacity="1" stop-color="rgb(100%, 39.659119%, 62.466431%)" offset="0.914062"/><stop stop-opacity="1" stop-color="rgb(100%, 39.538574%, 62.68158%)" offset="0.921875"/><stop stop-opacity="1" stop-color="rgb(100%, 39.416504%, 62.896729%)" offset="0.929687"/><stop stop-opacity="1" stop-color="rgb(100%, 39.294434%, 63.111877%)" offset="0.9375"/><stop stop-opacity="1" stop-color="rgb(100%, 39.172363%, 63.328552%)" offset="0.945312"/><stop stop-opacity="1" stop-color="rgb(100%, 39.051819%, 63.543701%)" offset="0.953125"/><stop stop-opacity="1" stop-color="rgb(100%, 38.929749%, 63.75885%)" offset="0.960937"/><stop stop-opacity="1" stop-color="rgb(100%, 38.807678%, 63.973999%)" offset="0.96875"/><stop stop-opacity="1" stop-color="rgb(100%, 38.685608%, 64.190674%)" offset="0.976562"/><stop stop-opacity="1" stop-color="rgb(100%, 38.565063%, 64.405823%)" offset="0.984375"/><stop stop-opacity="1" stop-color="rgb(100%, 38.450623%, 64.605713%)" offset="1"/></linearGradient><clipPath id="efa6e41089"><path d="M 360 262 L 395 262 L 395 297 L 360 297 Z M 360 262 " clip-rule="nonzero"/></clipPath><clipPath id="91289b978e"><path d="M 394.191406 267.007812 L 364.695312 296.503906 L 360.3125 292.121094 L 389.808594 262.625 Z M 394.191406 267.007812 " clip-rule="evenodd"/></clipPath><linearGradient x1="222.604" gradientTransform="matrix(1.693966, 0, 0, 1.693966, 0.168114, -23.655339)" y1="159" x2="202.604001" gradientUnits="userSpaceOnUse" y2="178.999999" id="2d86fe5f2f"><stop stop-opacity="1" stop-color="rgb(100%, 25.099182%, 30.599976%)" offset="0"/><stop stop-opacity="1" stop-color="rgb(100%, 25.151062%, 30.732727%)" offset="0.0078125"/><stop stop-opacity="1" stop-color="rgb(100%, 25.254822%, 30.99823%)" offset="0.015625"/><stop stop-opacity="1" stop-color="rgb(100%, 25.358582%, 31.265259%)" offset="0.0234375"/><stop stop-opacity="1" stop-color="rgb(100%, 25.462341%, 31.530762%)" offset="0.03125"/><stop stop-opacity="1" stop-color="rgb(100%, 25.566101%, 31.797791%)" offset="0.0390625"/><stop stop-opacity="1" stop-color="rgb(100%, 25.671387%, 32.063293%)" offset="0.046875"/><stop stop-opacity="1" stop-color="rgb(100%, 25.775146%, 32.330322%)" offset="0.0546875"/><stop stop-opacity="1" stop-color="rgb(100%, 25.878906%, 32.597351%)" offset="0.0625"/><stop stop-opacity="1" stop-color="rgb(100%, 25.982666%, 32.862854%)" offset="0.0703125"/><stop stop-opacity="1" stop-color="rgb(100%, 26.086426%, 33.129883%)" offset="0.078125"/><stop stop-opacity="1" stop-color="rgb(100%, 26.190186%, 33.395386%)" offset="0.0859375"/><stop stop-opacity="1" stop-color="rgb(100%, 26.293945%, 33.662415%)" offset="0.09375"/><stop stop-opacity="1" stop-color="rgb(100%, 26.397705%, 33.929443%)" offset="0.101562"/><stop stop-opacity="1" stop-color="rgb(100%, 26.501465%, 34.194946%)" offset="0.109375"/><stop stop-opacity="1" stop-color="rgb(100%, 26.605225%, 34.461975%)" offset="0.117188"/><stop stop-opacity="1" stop-color="rgb(100%, 26.708984%, 34.727478%)" offset="0.125"/><stop stop-opacity="1" stop-color="rgb(100%, 26.81427%, 34.994507%)" offset="0.132812"/><stop stop-opacity="1" stop-color="rgb(100%, 26.91803%, 35.261536%)" offset="0.140625"/><stop stop-opacity="1" stop-color="rgb(100%, 27.02179%, 35.527039%)" offset="0.148438"/><stop stop-opacity="1" stop-color="rgb(100%, 27.125549%, 35.794067%)" offset="0.15625"/><stop stop-opacity="1" stop-color="rgb(100%, 27.229309%, 36.05957%)" offset="0.164062"/><stop stop-opacity="1" stop-color="rgb(100%, 27.333069%, 36.326599%)" offset="0.171875"/><stop stop-opacity="1" stop-color="rgb(100%, 27.436829%, 36.593628%)" offset="0.179688"/><stop stop-opacity="1" stop-color="rgb(100%, 27.540588%, 36.859131%)" offset="0.1875"/><stop stop-opacity="1" stop-color="rgb(100%, 27.644348%, 37.12616%)" offset="0.195312"/><stop stop-opacity="1" stop-color="rgb(100%, 27.748108%, 37.391663%)" offset="0.203125"/><stop stop-opacity="1" stop-color="rgb(100%, 27.853394%, 37.658691%)" offset="0.210938"/><stop stop-opacity="1" stop-color="rgb(100%, 27.957153%, 37.92572%)" offset="0.21875"/><stop stop-opacity="1" stop-color="rgb(100%, 28.060913%, 38.191223%)" offset="0.226562"/><stop stop-opacity="1" stop-color="rgb(100%, 28.164673%, 38.458252%)" offset="0.234375"/><stop stop-opacity="1" stop-color="rgb(100%, 28.268433%, 38.723755%)" offset="0.242188"/><stop stop-opacity="1" stop-color="rgb(100%, 28.372192%, 38.990784%)" offset="0.25"/><stop stop-opacity="1" stop-color="rgb(100%, 28.475952%, 39.256287%)" offset="0.257812"/><stop stop-opacity="1" stop-color="rgb(100%, 28.579712%, 39.523315%)" offset="0.265625"/><stop stop-opacity="1" stop-color="rgb(100%, 28.683472%, 39.790344%)" offset="0.273438"/><stop stop-opacity="1" stop-color="rgb(100%, 28.787231%, 40.055847%)" offset="0.28125"/><stop stop-opacity="1" stop-color="rgb(100%, 28.890991%, 40.322876%)" offset="0.289062"/><stop stop-opacity="1" stop-color="rgb(100%, 28.996277%, 40.588379%)" offset="0.296875"/><stop stop-opacity="1" stop-color="rgb(100%, 29.100037%, 40.855408%)" offset="0.304688"/><stop stop-opacity="1" stop-color="rgb(100%, 29.203796%, 41.122437%)" offset="0.3125"/><stop stop-opacity="1" stop-color="rgb(100%, 29.307556%, 41.387939%)" offset="0.320312"/><stop stop-opacity="1" stop-color="rgb(100%, 29.411316%, 41.654968%)" offset="0.328125"/><stop stop-opacity="1" stop-color="rgb(100%, 29.515076%, 41.920471%)" offset="0.335938"/><stop stop-opacity="1" stop-color="rgb(100%, 29.618835%, 42.1875%)" offset="0.34375"/><stop stop-opacity="1" stop-color="rgb(100%, 29.722595%, 42.454529%)" offset="0.351562"/><stop stop-opacity="1" stop-color="rgb(100%, 29.826355%, 42.720032%)" offset="0.359375"/><stop stop-opacity="1" stop-color="rgb(100%, 29.930115%, 42.987061%)" offset="0.367188"/><stop stop-opacity="1" stop-color="rgb(100%, 30.0354%, 43.252563%)" offset="0.375"/><stop stop-opacity="1" stop-color="rgb(100%, 30.13916%, 43.519592%)" offset="0.382812"/><stop stop-opacity="1" stop-color="rgb(100%, 30.24292%, 43.786621%)" offset="0.390625"/><stop stop-opacity="1" stop-color="rgb(100%, 30.34668%, 44.052124%)" offset="0.398438"/><stop stop-opacity="1" stop-color="rgb(100%, 30.450439%, 44.319153%)" offset="0.40625"/><stop stop-opacity="1" stop-color="rgb(100%, 30.554199%, 44.584656%)" offset="0.414062"/><stop stop-opacity="1" stop-color="rgb(100%, 30.657959%, 44.851685%)" offset="0.421875"/><stop stop-opacity="1" stop-color="rgb(100%, 30.761719%, 45.117188%)" offset="0.429688"/><stop stop-opacity="1" stop-color="rgb(100%, 30.865479%, 45.384216%)" offset="0.4375"/><stop stop-opacity="1" stop-color="rgb(100%, 30.969238%, 45.651245%)" offset="0.445312"/><stop stop-opacity="1" stop-color="rgb(100%, 31.074524%, 45.916748%)" offset="0.453125"/><stop stop-opacity="1" stop-color="rgb(100%, 31.178284%, 46.183777%)" offset="0.460938"/><stop stop-opacity="1" stop-color="rgb(100%, 31.282043%, 46.44928%)" offset="0.46875"/><stop stop-opacity="1" stop-color="rgb(100%, 31.385803%, 46.716309%)" offset="0.476562"/><stop stop-opacity="1" stop-color="rgb(100%, 31.489563%, 46.983337%)" offset="0.484375"/><stop stop-opacity="1" stop-color="rgb(100%, 31.593323%, 47.24884%)" offset="0.492188"/><stop stop-opacity="1" stop-color="rgb(100%, 31.697083%, 47.515869%)" offset="0.5"/><stop stop-opacity="1" stop-color="rgb(100%, 31.800842%, 47.781372%)" offset="0.507812"/><stop stop-opacity="1" stop-color="rgb(100%, 31.904602%, 48.048401%)" offset="0.515625"/><stop stop-opacity="1" stop-color="rgb(100%, 32.008362%, 48.31543%)" offset="0.523438"/><stop stop-opacity="1" stop-color="rgb(100%, 32.112122%, 48.580933%)" offset="0.53125"/><stop stop-opacity="1" stop-color="rgb(100%, 32.217407%, 48.847961%)" offset="0.539062"/><stop stop-opacity="1" stop-color="rgb(100%, 32.321167%, 49.113464%)" offset="0.546875"/><stop stop-opacity="1" stop-color="rgb(100%, 32.424927%, 49.380493%)" offset="0.554688"/><stop stop-opacity="1" stop-color="rgb(100%, 32.528687%, 49.647522%)" offset="0.5625"/><stop stop-opacity="1" stop-color="rgb(100%, 32.632446%, 49.913025%)" offset="0.570312"/><stop stop-opacity="1" stop-color="rgb(100%, 32.736206%, 50.180054%)" offset="0.578125"/><stop stop-opacity="1" stop-color="rgb(100%, 32.839966%, 50.445557%)" offset="0.585938"/><stop stop-opacity="1" stop-color="rgb(100%, 32.943726%, 50.712585%)" offset="0.59375"/><stop stop-opacity="1" stop-color="rgb(100%, 33.047485%, 50.979614%)" offset="0.601562"/><stop stop-opacity="1" stop-color="rgb(100%, 33.151245%, 51.245117%)" offset="0.609375"/><stop stop-opacity="1" stop-color="rgb(100%, 33.256531%, 51.512146%)" offset="0.617188"/><stop stop-opacity="1" stop-color="rgb(100%, 33.360291%, 51.777649%)" offset="0.625"/><stop stop-opacity="1" stop-color="rgb(100%, 33.46405%, 52.044678%)" offset="0.632812"/><stop stop-opacity="1" stop-color="rgb(100%, 33.56781%, 52.310181%)" offset="0.640625"/><stop stop-opacity="1" stop-color="rgb(100%, 33.67157%, 52.577209%)" offset="0.648438"/><stop stop-opacity="1" stop-color="rgb(100%, 33.77533%, 52.844238%)" offset="0.65625"/><stop stop-opacity="1" stop-color="rgb(100%, 33.879089%, 53.109741%)" offset="0.664062"/><stop stop-opacity="1" stop-color="rgb(100%, 33.982849%, 53.37677%)" offset="0.671875"/><stop stop-opacity="1" stop-color="rgb(100%, 34.086609%, 53.642273%)" offset="0.679688"/><stop stop-opacity="1" stop-color="rgb(100%, 34.190369%, 53.909302%)" offset="0.6875"/><stop stop-opacity="1" stop-color="rgb(100%, 34.294128%, 54.176331%)" offset="0.695312"/><stop stop-opacity="1" stop-color="rgb(100%, 34.399414%, 54.441833%)" offset="0.703125"/><stop stop-opacity="1" stop-color="rgb(100%, 34.503174%, 54.708862%)" offset="0.710938"/><stop stop-opacity="1" stop-color="rgb(100%, 34.606934%, 54.974365%)" offset="0.71875"/><stop stop-opacity="1" stop-color="rgb(100%, 34.710693%, 55.241394%)" offset="0.726562"/><stop stop-opacity="1" stop-color="rgb(100%, 34.814453%, 55.508423%)" offset="0.734375"/><stop stop-opacity="1" stop-color="rgb(100%, 34.918213%, 55.773926%)" offset="0.742188"/><stop stop-opacity="1" stop-color="rgb(100%, 35.021973%, 56.040955%)" offset="0.75"/><stop stop-opacity="1" stop-color="rgb(100%, 35.125732%, 56.306458%)" offset="0.757812"/><stop stop-opacity="1" stop-color="rgb(100%, 35.229492%, 56.573486%)" offset="0.765625"/><stop stop-opacity="1" stop-color="rgb(100%, 35.333252%, 56.840515%)" offset="0.773438"/><stop stop-opacity="1" stop-color="rgb(100%, 35.438538%, 57.106018%)" offset="0.78125"/><stop stop-opacity="1" stop-color="rgb(100%, 35.542297%, 57.373047%)" offset="0.789062"/><stop stop-opacity="1" stop-color="rgb(100%, 35.646057%, 57.63855%)" offset="0.796875"/><stop stop-opacity="1" stop-color="rgb(100%, 35.749817%, 57.905579%)" offset="0.804688"/><stop stop-opacity="1" stop-color="rgb(100%, 35.853577%, 58.171082%)" offset="0.8125"/><stop stop-opacity="1" stop-color="rgb(100%, 35.957336%, 58.43811%)" offset="0.820312"/><stop stop-opacity="1" stop-color="rgb(100%, 36.061096%, 58.705139%)" offset="0.828125"/><stop stop-opacity="1" stop-color="rgb(100%, 36.164856%, 58.970642%)" offset="0.835938"/><stop stop-opacity="1" stop-color="rgb(100%, 36.268616%, 59.237671%)" offset="0.84375"/><stop stop-opacity="1" stop-color="rgb(100%, 36.372375%, 59.503174%)" offset="0.851562"/><stop stop-opacity="1" stop-color="rgb(100%, 36.476135%, 59.770203%)" offset="0.859375"/><stop stop-opacity="1" stop-color="rgb(100%, 36.581421%, 60.037231%)" offset="0.867188"/><stop stop-opacity="1" stop-color="rgb(100%, 36.685181%, 60.302734%)" offset="0.875"/><stop stop-opacity="1" stop-color="rgb(100%, 36.78894%, 60.569763%)" offset="0.882812"/><stop stop-opacity="1" stop-color="rgb(100%, 36.8927%, 60.835266%)" offset="0.890625"/><stop stop-opacity="1" stop-color="rgb(100%, 36.99646%, 61.102295%)" offset="0.898438"/><stop stop-opacity="1" stop-color="rgb(100%, 37.10022%, 61.369324%)" offset="0.90625"/><stop stop-opacity="1" stop-color="rgb(100%, 37.203979%, 61.634827%)" offset="0.914062"/><stop stop-opacity="1" stop-color="rgb(100%, 37.307739%, 61.901855%)" offset="0.921875"/><stop stop-opacity="1" stop-color="rgb(100%, 37.411499%, 62.167358%)" offset="0.929688"/><stop stop-opacity="1" stop-color="rgb(100%, 37.515259%, 62.434387%)" offset="0.9375"/><stop stop-opacity="1" stop-color="rgb(100%, 37.620544%, 62.701416%)" offset="0.945312"/><stop stop-opacity="1" stop-color="rgb(100%, 37.724304%, 62.966919%)" offset="0.953125"/><stop stop-opacity="1" stop-color="rgb(100%, 37.828064%, 63.233948%)" offset="0.960938"/><stop stop-opacity="1" stop-color="rgb(100%, 37.931824%, 63.499451%)" offset="0.96875"/><stop stop-opacity="1" stop-color="rgb(100%, 38.035583%, 63.766479%)" offset="0.976562"/><stop stop-opacity="1" stop-color="rgb(100%, 38.139343%, 64.033508%)" offset="0.984375"/><stop stop-opacity="1" stop-color="rgb(100%, 38.243103%, 64.299011%)" offset="0.992188"/><stop stop-opacity="1" stop-color="rgb(100%, 38.346863%, 64.56604%)" offset="1"/></linearGradient></defs><path stroke-linecap="round" transform="matrix(1.693965, 0, 0, 1.693965, 0.168114, -23.655344)" fill="none" stroke-linejoin="miter" d="M 11.60591 132.999153 L 11.60591 135.999233 " stroke="#d2d8df" stroke-width="2.921" stroke-opacity="1" stroke-miterlimit="4"/><path stroke-linecap="round" transform="matrix(1.693965, 0, 0, 1.693965, 0.168114, -23.655344)" fill="none" stroke-linejoin="miter" d="M 4.867837 134.624869 L 7.319094 137.149917 " stroke="#d2d8df" stroke-width="2.921" stroke-opacity="1" stroke-miterlimit="4"/><path stroke-linecap="round" transform="matrix(1.693965, 0, 0, 1.693965, 0.168114, -23.655344)" fill="none" stroke-linejoin="miter" d="M 1.999199 141.342188 L 5.467392 141.342188 " stroke="#d2d8df" stroke-width="2.921" stroke-opacity="1" stroke-miterlimit="4"/><path stroke-linecap="round" transform="matrix(1.693965, 0, 0, 1.693965, 0.168114, -23.655344)" fill="none" stroke-linejoin="miter" d="M 4.586508 148.179418 L 7.037764 145.656676 " stroke="#d2d8df" stroke-width="2.921" stroke-opacity="1" stroke-miterlimit="4"/><path stroke-linecap="round" transform="matrix(1.693965, 0, 0, 1.693965, 0.168114, -23.655344)" fill="none" stroke-linejoin="miter" d="M 11.60591 149.000346 L 11.60591 146.000267 " stroke="#d2d8df" stroke-width="2.921" stroke-opacity="1" stroke-miterlimit="4"/><path stroke-linecap="round" transform="matrix(1.693965, 0, 0, 1.693965, 0.168114, -23.655344)" fill="none" stroke-linejoin="miter" d="M 16.605274 147.001062 L 14.60599 144.999472 " stroke="#d2d8df" stroke-width="2.921" stroke-opacity="1" stroke-miterlimit="4"/><path stroke-linecap="round" transform="matrix(1.693965, 0, 0, 1.693965, 0.168114, -23.655344)" fill="none" stroke-linejoin="miter" d="M 20.606149 141.999392 L 17.606069 141.999392 " stroke="#d2d8df" stroke-width="2.921" stroke-opacity="1" stroke-miterlimit="4"/><path stroke-linecap="round" transform="matrix(1.693965, 0, 0, 1.693965, 0.168114, -23.655344)" fill="none" stroke-linejoin="miter" d="M 18.604559 135.000743 L 16.605274 137.000028 " stroke="#d2d8df" stroke-width="2.921" stroke-opacity="1" stroke-miterlimit="4"/><path stroke-linecap="round" transform="matrix(1.693965, 0, 0, 1.693965, 0.168114, -23.655344)" fill="none" stroke-linejoin="miter" d="M 172.604804 13.999068 L 172.604804 11.999784 " stroke="#d2d8df" stroke-width="2.921" stroke-opacity="1" stroke-miterlimit="4"/><path stroke-linecap="round" transform="matrix(1.693965, 0, 0, 1.693965, 0.168114, -23.655344)" fill="none" stroke-linejoin="miter" d="M 56.604799 86.00098 L 56.604799 89.001059 " stroke="#d2d8df" stroke-width="2.921" stroke-opacity="1" stroke-miterlimit="4"/><path stroke-linecap="round" transform="matrix(1.693965, 0, 0, 1.693965, 0.168114, -23.655344)" fill="none" stroke-linejoin="miter" d="M 47.60456 94.998913 L 50.60464 94.998913 " stroke="#d2d8df" stroke-width="2.921" stroke-opacity="1" stroke-miterlimit="4"/><path stroke-linecap="round" transform="matrix(1.693965, 0, 0, 1.693965, 0.168114, -23.655344)" fill="none" stroke-linejoin="miter" d="M 56.604799 103.000662 L 56.604799 100.000583 " stroke="#d2d8df" stroke-width="2.921" stroke-opacity="1" stroke-miterlimit="4"/><path stroke-linecap="round" transform="matrix(1.693965, 0, 0, 1.693965, 0.168114, -23.655344)" fill="none" stroke-linejoin="miter" d="M 64.606549 94.998913 L 61.606469 94.998913 " stroke="#d2d8df" stroke-width="2.921" stroke-opacity="1" stroke-miterlimit="4"/><path stroke-linecap="round" transform="matrix(1.693965, 0, 0, 1.693965, 0.168114, -23.655344)" fill="none" stroke-linejoin="miter" d="M 271.858784 195.039232 C 274.250085 195.039232 276.187108 196.978561 276.187108 199.367556 C 276.187108 201.758857 274.250085 203.69588 271.858784 203.69588 C 269.469789 203.69588 267.53046 201.758857 267.53046 199.367556 " stroke="#d2d8df" stroke-width="2.921" stroke-opacity="1" stroke-miterlimit="4"/><path fill="#ebecee" d="M 494.238281 240.203125 C 498.59375 238.84375 505.265625 233.519531 506.8125 227.792969 C 508.210938 232.855469 514.082031 238.84375 519.382812 239.296875 C 513.417969 241.410156 507.714844 247.683594 506.8125 252.609375 C 506.195312 247.585938 498.308594 240.933594 494.238281 240.203125 " fill-opacity="1" fill-rule="evenodd"/><path fill="#ebecee" d="M 47.390625 304.472656 C 49.566406 303.796875 52.902344 301.136719 53.675781 298.269531 C 54.375 300.800781 57.3125 303.796875 59.960938 304.023438 C 56.980469 305.078125 54.128906 308.214844 53.675781 310.679688 C 53.367188 308.167969 49.425781 304.839844 47.390625 304.472656 " fill-opacity="1" fill-rule="evenodd"/><path fill="#d1d8df" d="M 87.796875 68.832031 C 87.796875 71.976562 85.25 74.519531 82.109375 74.519531 C 78.96875 74.519531 76.425781 71.976562 76.425781 68.832031 C 76.425781 65.691406 78.96875 63.148438 82.109375 63.148438 C 85.25 63.148438 87.796875 65.691406 87.796875 68.832031 " fill-opacity="1" fill-rule="evenodd"/><path fill="#ebecee" d="M 467.40625 84.097656 C 467.40625 89.347656 463.148438 93.601562 457.902344 93.601562 C 452.65625 93.601562 448.398438 89.347656 448.398438 84.097656 C 448.398438 78.851562 452.65625 74.59375 457.902344 74.59375 C 463.148438 74.59375 467.40625 78.851562 467.40625 84.097656 " fill-opacity="1" fill-rule="evenodd"/><path fill="#ebecee" d="M 599.015625 58.351562 C 599.015625 62.515625 595.644531 65.890625 591.480469 65.890625 C 587.320312 65.890625 583.945312 62.515625 583.945312 58.351562 C 583.945312 54.1875 587.320312 50.8125 591.480469 50.8125 C 595.644531 50.8125 599.015625 54.1875 599.015625 58.351562 " fill-opacity="1" fill-rule="evenodd"/><path stroke-linecap="round" transform="matrix(1.693965, 0, 0, 1.693965, 0.168114, -23.655344)" fill="none" stroke-linejoin="miter" d="M 114.447995 256.269912 C 114.447995 257.817225 113.193542 259.073983 111.643923 259.073983 C 110.094305 259.073983 108.839852 257.817225 108.839852 256.269912 C 108.839852 254.717988 110.094305 253.463535 111.643923 253.463535 C 113.193542 253.463535 114.447995 254.717988 114.447995 256.269912 Z M 114.447995 256.269912 " stroke="#d2d8df" stroke-width="2.921" stroke-opacity="1" stroke-miterlimit="4"/><path stroke-linecap="round" transform="matrix(1.693965, 0, 0, 1.693965, 0.168114, -23.655344)" fill="none" stroke-linejoin="miter" d="M 112.780771 33.032625 C 112.780771 34.886633 111.277273 36.390132 109.423265 36.390132 C 107.571563 36.390132 106.068064 34.886633 106.068064 33.032625 C 106.068064 31.178617 107.571563 29.675119 109.423265 29.675119 C 111.277273 29.675119 112.780771 31.178617 112.780771 33.032625 Z M 112.780771 33.032625 " stroke="#d2d8df" stroke-width="2.921" stroke-opacity="1" stroke-miterlimit="4"/><path stroke-linecap="round" transform="matrix(1.693965, 0, 0, 1.693965, 0.168114, -23.655344)" fill="none" stroke-linejoin="miter" d="M 198.383351 287.336071 C 196.23879 288.152388 193.838265 287.075496 193.021948 284.930934 C 192.207938 282.786373 193.282524 280.385848 195.429391 279.569531 C 197.571647 278.753215 199.972171 279.830107 200.788488 281.974668 C 201.604805 284.119229 200.527913 286.52206 198.383351 287.336071 Z M 198.383351 287.336071 " stroke="#d2d8df" stroke-width="2.921" stroke-opacity="1" stroke-miterlimit="4"/><path fill="#e0e2ee" d="M 334.058594 328.691406 L 195.144531 328.691406 C 185.367188 328.691406 177.363281 320.660156 177.363281 310.851562 L 177.363281 112.753906 C 177.363281 102.945312 185.367188 94.921875 195.144531 94.921875 L 334.058594 94.921875 C 343.839844 94.921875 351.84375 102.945312 351.84375 112.753906 L 351.84375 310.851562 C 351.84375 320.660156 343.839844 328.691406 334.058594 328.691406 " fill-opacity="1" fill-rule="evenodd"/><path fill="#e8ebf2" d="M 322.199219 337.160156 L 183.285156 337.160156 C 173.507812 337.160156 165.503906 329.132812 165.503906 319.320312 L 165.503906 121.226562 C 165.503906 111.414062 173.507812 103.390625 183.285156 103.390625 L 322.199219 103.390625 C 331.980469 103.390625 339.984375 111.414062 339.984375 121.226562 L 339.984375 319.320312 C 339.984375 329.132812 331.980469 337.160156 322.199219 337.160156 " fill-opacity="1" fill-rule="evenodd"/><path fill="#d8dbea" d="M 310.664062 343.847656 L 171.464844 343.847656 C 161.667969 343.847656 153.648438 335.851562 153.648438 326.085938 L 153.648438 128.808594 C 153.648438 119.039062 161.667969 111.046875 171.464844 111.046875 L 310.664062 111.046875 C 320.464844 111.046875 328.484375 119.039062 328.484375 128.808594 L 328.484375 326.085938 C 328.484375 335.851562 320.464844 343.847656 310.664062 343.847656 " fill-opacity="1" fill-rule="evenodd"/><path fill="#f1f2f7" d="M 310.664062 343.847656 L 171.464844 343.847656 C 161.667969 343.847656 153.648438 335.851562 153.648438 326.085938 L 153.648438 128.808594 C 153.648438 119.039062 161.667969 111.046875 171.464844 111.046875 L 310.664062 111.046875 C 320.464844 111.046875 328.484375 119.039062 328.484375 128.808594 L 328.484375 326.085938 C 328.484375 335.851562 320.464844 343.847656 310.664062 343.847656 " fill-opacity="1" fill-rule="evenodd"/><path fill="#e0e2ee" d="M 290.601562 171.152344 L 187.785156 171.152344 C 184.847656 171.152344 182.445312 168.863281 182.445312 166.070312 C 182.445312 163.273438 184.847656 160.988281 187.785156 160.988281 L 290.601562 160.988281 C 293.539062 160.988281 295.941406 163.273438 295.941406 166.070312 C 295.941406 168.863281 293.539062 171.152344 290.601562 171.152344 " fill-opacity="1" fill-rule="evenodd"/><path fill="#e0e2ee" d="M 290.601562 201.640625 L 187.785156 201.640625 C 184.847656 201.640625 182.445312 199.355469 182.445312 196.5625 C 182.445312 193.765625 184.847656 191.476562 187.785156 191.476562 L 290.601562 191.476562 C 293.539062 191.476562 295.941406 193.765625 295.941406 196.5625 C 295.941406 199.355469 293.539062 201.640625 290.601562 201.640625 " fill-opacity="1" fill-rule="evenodd"/><path fill="#e0e2ee" d="M 290.601562 232.132812 L 187.785156 232.132812 C 184.847656 232.132812 182.445312 229.847656 182.445312 227.054688 C 182.445312 224.261719 184.847656 221.96875 187.785156 221.96875 L 290.601562 221.96875 C 293.539062 221.96875 295.941406 224.261719 295.941406 227.054688 C 295.941406 229.847656 293.539062 232.132812 290.601562 232.132812 " fill-opacity="1" fill-rule="evenodd"/><path fill="#e0e2ee" d="M 290.601562 262.625 L 187.785156 262.625 C 184.847656 262.625 182.445312 260.339844 182.445312 257.542969 C 182.445312 254.746094 184.847656 252.460938 187.785156 252.460938 L 290.601562 252.460938 C 293.539062 252.460938 295.941406 254.746094 295.941406 257.542969 C 295.941406 260.339844 293.539062 262.625 290.601562 262.625 " fill-opacity="1" fill-rule="evenodd"/><path fill="#e0e2ee" d="M 241.453125 293.117188 L 187.808594 293.117188 C 184.859375 293.117188 182.445312 290.828125 182.445312 288.035156 C 182.445312 285.238281 184.859375 282.953125 187.808594 282.953125 L 241.453125 282.953125 C 244.402344 282.953125 246.816406 285.238281 246.816406 288.035156 C 246.816406 290.828125 244.402344 293.117188 241.453125 293.117188 " fill-opacity="1" fill-rule="evenodd"/><path fill="#ffffff" d="M 349.730469 253.710938 C 329.171875 274.265625 297.34375 276.582031 274.238281 260.714844 C 271.285156 258.648438 268.472656 256.328125 265.851562 253.710938 C 264.503906 252.363281 263.234375 250.976562 262.03125 249.515625 C 259.636719 246.597656 257.539062 243.484375 255.816406 240.269531 C 252.785156 234.839844 250.726562 229.074219 249.601562 223.121094 C 245.972656 204.4375 251.398438 184.332031 265.851562 169.882812 C 280.34375 155.390625 300.453125 150 319.136719 153.59375 C 325.089844 154.753906 330.859375 156.816406 336.289062 159.808594 C 339.511719 161.566406 342.578125 163.667969 345.503906 166.0625 C 346.960938 167.257812 348.347656 168.535156 349.695312 169.882812 C 352.316406 172.503906 354.671875 175.308594 356.699219 178.265625 C 372.578125 201.367188 370.253906 233.191406 349.730469 253.710938 " fill-opacity="0.102" fill-rule="evenodd"/><path fill="#e0e2ee" d="M 343.980469 249.660156 C 322.589844 271.054688 287.925781 271.050781 266.535156 249.660156 C 245.167969 228.292969 245.167969 193.628906 266.5625 172.238281 C 287.925781 150.875 322.589844 150.875 343.953125 172.238281 C 365.34375 193.628906 365.34375 228.292969 343.980469 249.660156 M 354.957031 161.25 C 327.5 133.796875 283.011719 133.796875 255.558594 161.25 C 228.105469 188.703125 228.082031 233.21875 255.535156 260.671875 C 280.519531 285.652344 319.6875 287.90625 347.230469 267.394531 C 349.921875 265.390625 352.511719 263.140625 354.984375 260.671875 C 357.453125 258.203125 359.699219 255.609375 361.703125 252.921875 C 382.210938 225.371094 379.941406 186.234375 354.957031 161.25 " fill-opacity="1" fill-rule="evenodd"/><g clip-path="url(#67345544e8)"><g clip-path="url(#044208ccb7)"><path fill="url(#617257baf2)" d="M 363.699219 266.011719 L 363.699219 372.945312 L 470.632812 372.945312 L 470.632812 266.011719 Z M 363.699219 266.011719 " fill-rule="nonzero"/></g></g><path fill="#e0e2ee" d="M 363.21875 250.765625 L 384.027344 271.574219 L 369.257812 286.339844 L 348.453125 265.535156 C 351.199219 263.488281 353.839844 261.191406 356.363281 258.675781 C 358.882812 256.15625 361.175781 253.511719 363.21875 250.765625 " fill-opacity="1" fill-rule="evenodd"/><path fill="#ef545f" d="M 461.949219 335.558594 L 433.238281 364.261719 L 428.070312 359.089844 L 456.777344 330.382812 Z M 461.949219 335.558594 " fill-opacity="1" fill-rule="evenodd"/><g clip-path="url(#efa6e41089)"><g clip-path="url(#91289b978e)"><path fill="url(#2d86fe5f2f)" d="M 360.3125 262.625 L 360.3125 296.503906 L 394.191406 296.503906 L 394.191406 262.625 Z M 360.3125 262.625 " fill-rule="nonzero"/></g></g><path fill="#ffffff" d="M 329.820312 164.882812 L 257.480469 237.214844 C 254.757812 232.332031 252.90625 227.152344 251.898438 221.796875 L 314.402344 159.292969 C 319.75 160.339844 324.9375 162.1875 329.820312 164.882812 " fill-opacity="0.502" fill-rule="evenodd"/><path fill="#ffffff" d="M 353.535156 182.074219 L 275.328125 255.847656 C 272.527344 254.007812 269.863281 251.929688 267.378906 249.585938 C 266.097656 248.378906 264.886719 247.140625 263.757812 245.832031 L 342.914062 171.152344 C 344.300781 172.222656 345.613281 173.363281 346.890625 174.574219 C 349.378906 176.917969 351.613281 179.425781 353.535156 182.074219 " fill-opacity="0.502" fill-rule="evenodd"/></svg>