<svg width="48" height="48" viewBox="0 0 48 48" fill="none" xmlns="http://www.w3.org/2000/svg">
<circle cx="24" cy="24" r="24" fill="black"/>
<mask id="mask0_530_2276" style="mask-type:luminance" maskUnits="userSpaceOnUse" x="6" y="11" width="36" height="27">
<path d="M6 11H42V37.19H6V11Z" fill="white"/>
</mask>
<g mask="url(#mask0_530_2276)">
<path d="M40.8361 34.4391C40.8361 34.9521 40.4119 35.3698 39.8672 35.3705L23.9984 36.0267L8.10586 35.3698C7.58508 35.3698 7.16109 34.9521 7.16109 34.4391V14.94C7.16109 14.4249 7.58508 14.006 8.10586 14.006H8.79938V33.7589C8.84016 34.1674 9.16242 34.3139 9.40992 34.3388C9.46172 34.3439 14.7204 34.0707 18.8039 34.0547C22.1388 34.0547 23.9224 34.7536 23.9972 34.7536C24.0745 34.7536 25.857 34.0547 29.2985 34.0547C33.2756 34.0707 38.5341 34.3395 38.5856 34.3388C38.9721 34.3339 39.1845 34.0493 39.1964 33.7589V14.006H39.8916C40.4121 14.006 40.8363 14.4249 40.8363 14.94L40.8361 34.4391ZM22.4562 33.1885C21.5606 33.0319 20.3187 32.8941 18.6926 32.8941C16.4702 32.9028 13.871 32.989 11.9735 33.0642C13.841 32.4952 16.4883 31.8333 18.7219 31.823C20.4492 31.823 21.6727 32.5254 22.4562 33.1885ZM9.96117 14.3686C11.2343 13.857 15.675 12.1629 18.6867 12.1629C21.6218 12.1953 23.0337 13.4806 23.4178 13.9017V32.4816C22.4836 31.632 20.9266 30.6621 18.6912 30.6621C15.4891 30.6762 11.6074 31.9163 9.96117 32.498V14.3686ZM36.0277 33.0647C34.1161 32.989 31.482 32.9025 29.1933 32.8941C27.6314 32.8941 26.4272 33.0291 25.549 33.1838C26.3358 32.5217 27.5637 31.823 29.3011 31.823C31.5213 31.8328 34.1627 32.4957 36.0277 33.0647ZM24.5791 13.9024C24.9682 13.478 26.3904 12.1953 29.3885 12.1622C32.332 12.1622 36.7627 13.8563 38.0351 14.3686V32.498C36.3881 31.9163 32.5022 30.6762 29.2744 30.6621C27.0593 30.6621 25.5115 31.6303 24.5791 32.4788V13.9024ZM39.8916 12.8454H37.3148C35.3555 12.1205 31.9104 11.0023 29.2978 11.0023C26.3979 11.0339 24.7488 12.1634 24.0089 12.8454H23.9862C23.2402 12.1636 21.5728 11.0339 18.6087 11.0016C16.0596 11.0016 12.6316 12.1205 10.6788 12.8454H8.10586C6.94477 12.8454 6 13.7853 6 14.94V34.4391C6 35.5917 6.94477 36.5299 8.08055 36.5299C8.08195 36.5299 23.9749 37.1874 23.9749 37.1874C23.9824 37.1881 23.9906 37.1881 23.9984 37.1881C24.0063 37.1881 24.0141 37.1881 24.0225 37.1874L39.8916 36.5304C41.0522 36.5304 41.9974 35.5922 41.9974 34.4391V14.94C41.9974 13.785 41.0522 12.8454 39.8916 12.8454Z" fill="white"/>
</g>
</svg>
