<svg id="visual" viewBox="0 0 960 540" width="960" height="540" xmlns="http://www.w3.org/2000/svg" xmlns:xlink="http://www.w3.org/1999/xlink" version="1.1"><path d="M0 131L32 143.5C64 156 128 181 192 187.2C256 193.3 320 180.7 384 168.2C448 155.7 512 143.3 576 145.2C640 147 704 163 768 174.7C832 186.3 896 193.7 928 197.3L960 201L960 0L928 0C896 0 832 0 768 0C704 0 640 0 576 0C512 0 448 0 384 0C320 0 256 0 192 0C128 0 64 0 32 0L0 0Z" fill="#ccc3ac"></path><path d="M0 201L32 221.7C64 242.3 128 283.7 192 296.2C256 308.7 320 292.3 384 276.2C448 260 512 244 576 245C640 246 704 264 768 270.3C832 276.7 896 271.3 928 268.7L960 266L960 199L928 195.3C896 191.7 832 184.3 768 172.7C704 161 640 145 576 143.2C512 141.3 448 153.7 384 166.2C320 178.7 256 191.3 192 185.2C128 179 64 154 32 141.5L0 129Z" fill="#beb195"></path><path d="M0 460L32 460C64 460 128 460 192 458.2C256 456.3 320 452.7 384 448.2C448 443.7 512 438.3 576 429.3C640 420.3 704 407.7 768 411.3C832 415 896 435 928 445L960 455L960 264L928 266.7C896 269.3 832 274.7 768 268.3C704 262 640 244 576 243C512 242 448 258 384 274.2C320 290.3 256 306.7 192 294.2C128 281.7 64 240.3 32 219.7L0 199Z" fill="#a7997c"></path><path d="M0 541L32 541C64 541 128 541 192 541C256 541 320 541 384 541C448 541 512 541 576 541C640 541 704 541 768 541C832 541 896 541 928 541L960 541L960 453L928 443C896 433 832 413 768 409.3C704 405.7 640 418.3 576 427.3C512 436.3 448 441.7 384 446.2C320 450.7 256 454.3 192 456.2C128 458 64 458 32 458L0 458Z" fill="#887b63"></path></svg>