<svg xmlns="http://www.w3.org/2000/svg" xmlns:xlink="http://www.w3.org/1999/xlink" width="800" zoomAndPan="magnify" viewBox="0 0 600 449.999984" height="600" preserveAspectRatio="xMidYMid meet" version="1.0"><defs><filter x="0%" y="0%" width="100%" height="100%" id="50f7331508"><feColorMatrix values="0 0 0 0 1 0 0 0 0 1 0 0 0 0 1 0 0 0 1 0" color-interpolation-filters="sRGB"/></filter><mask id="6952446d5d"><g filter="url(#50f7331508)"><rect x="-60" width="720" fill="#000000" y="-44.999998" height="539.99998" fill-opacity="0.4196"/></g></mask><clipPath id="e2e652810b"><path d="M 0.28125 0.800781 L 56.441406 0.800781 L 56.441406 26.71875 L 0.28125 26.71875 Z M 0.28125 0.800781 " clip-rule="nonzero"/></clipPath><clipPath id="fc88d90783"><rect x="0" width="57" y="0" height="27"/></clipPath><mask id="5effe841c6"><g filter="url(#50f7331508)"><rect x="-60" width="720" fill="#000000" y="-44.999998" height="539.99998" fill-opacity="0.349"/></g></mask><clipPath id="7e412a26c1"><path d="M 0.558594 0.121094 L 398.71875 0.121094 L 398.71875 137.398438 L 0.558594 137.398438 Z M 0.558594 0.121094 " clip-rule="nonzero"/></clipPath><clipPath id="c520253f16"><rect x="0" width="399" y="0" height="138"/></clipPath><mask id="89609bd8f6"><g filter="url(#50f7331508)"><rect x="-60" width="720" fill="#000000" y="-44.999998" height="539.99998" fill-opacity="0.1882"/></g></mask><clipPath id="ba2f511d0d"><path d="M 0 0.441406 L 319.679688 0.441406 L 319.679688 123.558594 L 0 123.558594 Z M 0 0.441406 " clip-rule="nonzero"/></clipPath><clipPath id="57c3b57281"><rect x="0" width="320" y="0" height="124"/></clipPath><mask id="46837a4218"><g filter="url(#50f7331508)"><rect x="-60" width="720" fill="#000000" y="-44.999998" height="539.99998" fill-opacity="0.6196"/></g></mask><clipPath id="2dd01fa242"><path d="M 0.199219 0.878906 L 407.238281 0.878906 L 407.238281 137.199219 L 0.199219 137.199219 Z M 0.199219 0.878906 " clip-rule="nonzero"/></clipPath><clipPath id="280271b33d"><rect x="0" width="408" y="0" height="138"/></clipPath><mask id="23beb4456f"><g filter="url(#50f7331508)"><rect x="-60" width="720" fill="#000000" y="-44.999998" height="539.99998" fill-opacity="0.349"/></g></mask><clipPath id="f7fcc12f4c"><path d="M 0.878906 0.878906 L 399.039062 0.878906 L 399.039062 138.160156 L 0.878906 138.160156 Z M 0.878906 0.878906 " clip-rule="nonzero"/></clipPath><clipPath id="51732199d0"><rect x="0" width="400" y="0" height="139"/></clipPath><clipPath id="d6891d84a1"><path d="M 80 148 L 547.40625 148 L 547.40625 310 L 80 310 Z M 80 148 " clip-rule="nonzero"/></clipPath><mask id="fead3b6d48"><g filter="url(#50f7331508)"><rect x="-60" width="720" fill="#000000" y="-44.999998" height="539.99998" fill-opacity="0.1882"/></g></mask><clipPath id="b6cf351f60"><path d="M 0.320312 0.199219 L 320 0.199219 L 320 123.558594 L 0.320312 123.558594 Z M 0.320312 0.199219 " clip-rule="nonzero"/></clipPath><clipPath id="8959331eeb"><rect x="0" width="320" y="0" height="124"/></clipPath><clipPath id="27970d0208"><path d="M 534 205 L 547.40625 205 L 547.40625 218 L 534 218 Z M 534 205 " clip-rule="nonzero"/></clipPath><mask id="59249593d0"><g filter="url(#50f7331508)"><rect x="-60" width="720" fill="#000000" y="-44.999998" height="539.99998" fill-opacity="0.5176"/></g></mask><clipPath id="cfa4983264"><path d="M 0.921875 0.160156 L 399.078125 0.160156 L 399.078125 138.640625 L 0.921875 138.640625 Z M 0.921875 0.160156 " clip-rule="nonzero"/></clipPath><clipPath id="f2709b2287"><rect x="0" width="400" y="0" height="139"/></clipPath><mask id="afebc55651"><g filter="url(#50f7331508)"><rect x="-60" width="720" fill="#000000" y="-44.999998" height="539.99998" fill-opacity="0.1882"/></g></mask><clipPath id="acbe3c2b30"><path d="M 0.480469 0.28125 L 319.441406 0.28125 L 319.441406 125.800781 L 0.480469 125.800781 Z M 0.480469 0.28125 " clip-rule="nonzero"/></clipPath><clipPath id="57e986907c"><rect x="0" width="320" y="0" height="126"/></clipPath><mask id="b7ae0275a9"><g filter="url(#50f7331508)"><rect x="-60" width="720" fill="#000000" y="-44.999998" height="539.99998" fill-opacity="0.1569"/></g></mask><clipPath id="e93bc45853"><path d="M 0.679688 0.121094 L 44.121094 0.121094 L 44.121094 22.441406 L 0.679688 22.441406 Z M 0.679688 0.121094 " clip-rule="nonzero"/></clipPath><clipPath id="3ac7620fef"><rect x="0" width="45" y="0" height="23"/></clipPath></defs><g mask="url(#6952446d5d)"><g transform="matrix(1, 0, 0, 1, 65, 214)"><g clip-path="url(#fc88d90783)"><path fill="#010101" d="M 21.671875 2.378906 L 1.710938 12.886719 L 55.085938 25.257812 Z M 21.671875 2.378906 " fill-opacity="1" fill-rule="nonzero"/><g clip-path="url(#e2e652810b)"><path stroke-linecap="butt" transform="matrix(0.258143, 0, 0, 0.258235, -20.783633, -248.603473)" fill="none" stroke-linejoin="miter" d="M 164.464993 971.915309 L 87.139915 1012.606229 L 293.905055 1060.512602 Z M 164.464993 971.915309 " stroke="#000000" stroke-width="1" stroke-opacity="1" stroke-miterlimit="10"/></g></g></g></g><path stroke-linecap="butt" transform="matrix(0.258143, 0, 0, 0.258235, 44.216367, -34.603463)" fill-opacity="1" fill="#ffffff" fill-rule="nonzero" stroke-linejoin="miter" d="M 1874.922959 1522.074655 L 1871.366913 1353.683831 L 660.041572 1632.046025 L 197.816164 1359.779905 C 197.816164 1359.779905 187.738179 1351.27868 179.128009 1355.302392 C 170.517839 1359.326103 169.80663 1366.874345 169.80663 1366.874345 L 163.436012 1505.072204 C 163.436012 1505.072204 162.573482 1513.921344 169.004628 1517.990436 C 175.435775 1522.059528 648.889207 1818.483046 648.889207 1818.483046 Z M 1874.922959 1522.074655 " stroke="#000000" stroke-width="1" stroke-opacity="1" stroke-miterlimit="10"/><path stroke-linecap="butt" transform="matrix(0.258143, 0, 0, 0.258235, 44.216367, -34.603463)" fill-opacity="1" fill="#f26822" fill-rule="nonzero" stroke-linejoin="miter" d="M 1293.744041 998.024016 L 1888.602385 1299.681384 L 665.004904 1591.778654 L 148.364431 1281.423413 Z M 1293.744041 998.024016 " stroke="#000000" stroke-width="1" stroke-opacity="1" stroke-miterlimit="10"/><g mask="url(#5effe841c6)"><g transform="matrix(1, 0, 0, 1, 106, 231)"><g clip-path="url(#c520253f16)"><path fill="#f9a11b" d="M 111.605469 135.847656 C 111.324219 135.847656 111.042969 135.773438 110.796875 135.625 L 2.800781 70.726562 C 2.257812 70.398438 1.960938 69.777344 2.058594 69.148438 C 2.152344 68.519531 2.617188 68.011719 3.230469 67.859375 L 270.546875 1.691406 C 270.910156 1.601562 271.296875 1.644531 271.632812 1.816406 L 396.308594 65.0625 C 396.894531 65.359375 397.234375 65.992188 397.160156 66.648438 C 397.082031 67.300781 396.605469 67.835938 395.964844 67.988281 L 111.96875 135.804688 C 111.851562 135.832031 111.726562 135.847656 111.605469 135.847656 Z M 7.675781 69.992188 L 111.867188 132.601562 L 391.078125 65.925781 L 270.738281 4.875 Z M 7.675781 69.992188 " fill-opacity="1" fill-rule="nonzero"/><g clip-path="url(#7e412a26c1)"><path stroke-linecap="butt" transform="matrix(0.258143, 0, 0, 0.258235, -61.783633, -265.603473)" fill="none" stroke-linejoin="miter" d="M 671.678164 1554.597177 C 670.588652 1554.597177 669.49914 1554.309769 668.545817 1553.734953 L 250.188394 1302.419363 C 248.085031 1301.148717 246.934991 1298.743566 247.313293 1296.308161 C 247.676464 1293.872757 249.477185 1291.906281 251.852926 1291.316339 L 1287.388555 1035.084559 C 1288.795841 1034.736644 1290.29392 1034.903038 1291.595281 1035.568614 L 1774.566811 1280.485596 C 1776.836627 1281.635228 1778.15312 1284.085759 1777.86561 1286.62705 C 1777.562968 1289.153215 1775.716851 1291.225578 1773.235185 1291.815521 L 673.08545 1554.430783 C 672.631487 1554.53667 672.147259 1554.597177 671.678164 1554.597177 Z M 269.073266 1299.575536 L 672.692015 1542.02686 L 1754.304916 1283.828604 L 1288.130028 1047.412848 Z M 269.073266 1299.575536 " stroke="#000000" stroke-width="1" stroke-opacity="1" stroke-miterlimit="10"/></g></g></g></g><path stroke-linecap="butt" transform="matrix(0.258143, 0, 0, 0.258235, 44.216367, -34.603463)" fill-opacity="1" fill="#cd5928" fill-rule="nonzero" stroke-linejoin="miter" d="M 1898.952748 1516.265989 L 1898.952748 1564.822811 L 654.472956 1876.11591 L 126.33208 1536.596322 C 126.33208 1536.596322 88.123505 1402.694455 148.364431 1281.423413 L 665.004904 1591.778654 L 1888.602385 1299.69651 L 1888.602385 1349.735753 L 660.041572 1632.046025 L 192.035698 1356.37639 C 182.396545 1350.67361 170.139536 1357.283994 169.640177 1368.477779 L 163.375484 1506.267216 C 163.163634 1511.213659 165.615036 1515.902947 169.80663 1518.534999 L 648.889207 1818.483046 Z M 1898.952748 1516.265989 " stroke="#000000" stroke-width="1" stroke-opacity="1" stroke-miterlimit="10"/><g mask="url(#89609bd8f6)"><g transform="matrix(1, 0, 0, 1, 210, 313)"><g clip-path="url(#57c3b57281)"><path fill="#f9a11b" d="M 1.722656 121.996094 L 4.601562 73.847656 L 317.296875 1.964844 L 318.214844 45.449219 Z M 1.722656 121.996094 " fill-opacity="1" fill-rule="nonzero"/><g clip-path="url(#ba2f511d0d)"><path stroke-linecap="butt" transform="matrix(0.258143, 0, 0, 0.258235, -165.783626, -347.603473)" fill="none" stroke-linejoin="miter" d="M 648.889179 1818.498212 L 660.041544 1632.046065 L 1871.366885 1353.683871 L 1874.922931 1522.074695 Z M 648.889179 1818.498212 " stroke="#000000" stroke-width="1" stroke-opacity="1" stroke-miterlimit="10"/></g></g></g></g><path stroke-linecap="butt" transform="matrix(0.258143, 0, 0, 0.258235, 44.216367, -34.603463)" fill-opacity="1" fill="#e98d24" fill-rule="nonzero" stroke-linejoin="miter" d="M 1898.952748 1516.265989 L 1874.529524 1503.045221 L 1874.922959 1522.074655 Z M 1898.952748 1516.265989 " stroke="#000000" stroke-width="1" stroke-opacity="1" stroke-miterlimit="10"/><path stroke-linecap="butt" transform="matrix(0.258143, 0, 0, 0.258235, 44.216367, -34.603463)" fill-opacity="1" fill="#e98d24" fill-rule="nonzero" stroke-linejoin="miter" d="M 1888.602385 1349.720626 L 1871.442574 1357.16298 L 1871.366913 1353.683831 Z M 1888.602385 1349.720626 " stroke="#000000" stroke-width="1" stroke-opacity="1" stroke-miterlimit="10"/><path stroke-linecap="butt" transform="matrix(0.258143, 0, 0, 0.258235, 44.216367, -34.603463)" fill-opacity="1" fill="#fce586" fill-rule="nonzero" stroke-linejoin="miter" d="M 1251.797834 1086.848209 L 1572.46236 1263.104936 L 1450.088993 1306.125373 L 1146.629675 1115.407487 Z M 1251.797834 1086.848209 " stroke="#000000" stroke-width="1" stroke-opacity="1" stroke-miterlimit="10"/><path stroke-linecap="butt" transform="matrix(0.258143, 0, 0, 0.258235, 44.216367, -34.603463)" fill-opacity="1" fill="#fce586" fill-rule="nonzero" stroke-linejoin="miter" d="M 1050.268404 1150.652781 L 1354.060628 1331.144994 L 1341.743091 1338.345321 L 1038.298905 1156.673222 Z M 1050.268404 1150.652781 " stroke="#000000" stroke-width="1" stroke-opacity="1" stroke-miterlimit="10"/><path stroke-linecap="butt" transform="matrix(0.258143, 0, 0, 0.258235, 44.216367, -34.603463)" fill-opacity="1" fill="#e5e1d3" fill-rule="nonzero" stroke-linejoin="miter" d="M 195.455555 1397.581618 C 231.485107 1417.987585 267.106092 1439.074255 302.575756 1460.402953 C 320.340852 1471.006795 337.954627 1481.852664 355.659195 1492.592647 L 408.515653 1525.145383 L 461.129996 1558.076287 C 478.59245 1569.194438 496.130565 1580.176448 513.517358 1591.415613 C 548.351474 1613.742675 583.034268 1636.342018 617.293363 1659.606938 C 581.263811 1639.200971 545.642826 1618.114302 510.173162 1596.785604 C 492.392934 1586.181762 474.779159 1575.335892 457.074591 1564.59591 L 404.233266 1532.028047 L 351.634054 1499.097143 C 334.1716 1487.994119 316.633486 1476.996982 299.261824 1465.757817 C 264.412577 1443.415628 229.71465 1420.846538 195.455555 1397.581618 Z M 195.455555 1397.581618 " stroke="#000000" stroke-width="1" stroke-opacity="1" stroke-miterlimit="10"/><path stroke-linecap="butt" transform="matrix(0.258143, 0, 0, 0.258235, 44.216367, -34.603463)" fill-opacity="1" fill="#e5e1d3" fill-rule="nonzero" stroke-linejoin="miter" d="M 193.594306 1443.203854 C 229.623858 1463.609821 265.244843 1484.696491 300.714507 1506.025188 C 318.479603 1516.62903 336.093378 1527.4749 353.797946 1538.214882 L 406.654403 1570.767618 L 459.268747 1603.698522 C 476.731201 1614.816673 494.269316 1625.783557 511.656109 1637.022721 C 546.490224 1659.36491 581.173019 1681.964254 615.447246 1705.214047 C 579.402562 1684.823207 543.781577 1663.736537 508.311913 1642.392713 C 490.531685 1631.803998 472.917909 1620.943001 455.213342 1610.218145 L 402.387148 1577.650283 L 349.772805 1544.704252 C 332.310351 1533.616355 314.787368 1522.619218 297.400575 1511.380053 C 262.551327 1489.037864 227.853401 1466.453647 193.594306 1443.203854 Z M 193.594306 1443.203854 " stroke="#000000" stroke-width="1" stroke-opacity="1" stroke-miterlimit="10"/><path stroke-linecap="butt" transform="matrix(0.258143, 0, 0, 0.258235, 44.216367, -34.603463)" fill-opacity="1" fill="#e5e1d3" fill-rule="nonzero" stroke-linejoin="miter" d="M 195.455555 1490.505157 C 231.485107 1510.911124 267.106092 1531.997794 302.575756 1553.326492 C 320.340852 1563.930333 337.954627 1574.776203 355.659195 1585.516186 L 408.515653 1618.068921 L 461.129996 1650.999825 C 478.59245 1662.10285 496.130565 1673.08486 513.517358 1684.324025 C 548.351474 1706.666214 583.034268 1729.265557 617.293363 1752.51535 C 581.263811 1732.12451 545.642826 1711.022714 510.173162 1689.694016 C 492.392934 1679.105301 474.779159 1668.244304 457.074591 1657.519449 L 404.233266 1624.951586 L 351.634054 1592.005555 C 334.1716 1580.917658 316.633486 1569.920521 299.261824 1558.681356 C 264.412577 1536.339167 229.71465 1513.75495 195.455555 1490.505157 Z M 195.455555 1490.505157 " stroke="#000000" stroke-width="1" stroke-opacity="1" stroke-miterlimit="10"/><path stroke-linecap="butt" transform="matrix(0.258143, 0, 0, 0.258235, 44.216367, -34.603463)" fill-opacity="1" fill="#e5e1d3" fill-rule="nonzero" stroke-linejoin="miter" d="M 721.37201 1663.010454 C 813.693009 1637.40089 906.407442 1613.334253 999.242932 1589.827305 C 1045.622846 1577.922564 1092.13895 1566.592639 1138.594525 1554.990433 L 1278.142836 1521.03091 L 1417.918129 1487.918485 L 1487.889002 1471.702625 L 1522.874438 1463.624948 L 1557.905271 1455.698538 C 1651.300649 1434.505981 1744.817084 1413.857986 1838.726954 1394.783172 C 1746.405955 1420.42299 1653.691522 1444.489627 1560.856032 1467.996574 L 1526.052181 1476.845715 L 1491.202934 1485.513334 L 1421.504439 1502.833447 L 1281.925863 1536.777842 L 1142.165703 1569.875141 C 1095.498278 1580.615123 1048.906514 1591.627387 1002.178561 1602.079961 C 908.783183 1623.272519 815.266748 1643.920513 721.37201 1663.010454 Z M 721.37201 1663.010454 " stroke="#000000" stroke-width="1" stroke-opacity="1" stroke-miterlimit="10"/><path stroke-linecap="butt" transform="matrix(0.258143, 0, 0, 0.258235, 44.216367, -34.603463)" fill-opacity="1" fill="#e5e1d3" fill-rule="nonzero" stroke-linejoin="miter" d="M 721.37201 1705.75861 C 813.693009 1680.149046 906.407442 1656.082409 999.242932 1632.575461 C 1045.622846 1620.685847 1092.13895 1609.340795 1138.594525 1597.738588 L 1278.142836 1563.779066 L 1417.918129 1530.666641 L 1487.889002 1514.465907 L 1522.874438 1506.373103 L 1557.905271 1498.446694 C 1651.300649 1477.254137 1744.817084 1456.606142 1838.726954 1437.546455 C 1746.405955 1463.171145 1653.691522 1487.237782 1560.856032 1510.74473 L 1526.052181 1519.59387 L 1491.202934 1528.276617 L 1421.504439 1545.59673 L 1281.925863 1579.525998 L 1142.165703 1612.623296 C 1095.498278 1623.363279 1048.906514 1634.375543 1002.178561 1644.828117 C 908.783183 1666.020674 815.266748 1686.668669 721.37201 1705.75861 Z M 721.37201 1705.75861 " stroke="#000000" stroke-width="1" stroke-opacity="1" stroke-miterlimit="10"/><path stroke-linecap="butt" transform="matrix(0.258143, 0, 0, 0.258235, 44.216367, -34.603463)" fill-opacity="1" fill="#e5e1d3" fill-rule="nonzero" stroke-linejoin="miter" d="M 721.37201 1753.150673 C 813.693009 1727.541109 906.407442 1703.474472 999.242932 1679.967525 C 1045.622846 1668.062784 1092.13895 1656.732858 1138.594525 1645.130652 L 1278.142836 1611.17113 L 1417.918129 1578.058705 L 1487.889002 1561.842844 L 1522.874438 1553.765167 L 1557.905271 1545.838757 C 1651.300649 1524.6462 1744.817084 1503.998206 1838.726954 1484.923392 C 1746.405955 1510.563209 1653.691522 1534.629846 1560.856032 1558.136794 L 1526.052181 1566.985934 L 1491.202934 1575.653554 L 1421.504439 1592.973666 L 1281.925863 1626.918062 L 1142.165703 1660.000233 C 1095.498278 1670.755343 1048.906514 1681.75248 1002.178561 1692.205054 C 908.783183 1713.412738 815.266748 1734.045606 721.37201 1753.150673 Z M 721.37201 1753.150673 " stroke="#000000" stroke-width="1" stroke-opacity="1" stroke-miterlimit="10"/><path stroke-linecap="butt" transform="matrix(0.258143, 0, 0, 0.258235, 44.216367, -34.603463)" fill-opacity="1" fill="#f04d6e" fill-rule="nonzero" stroke-linejoin="miter" d="M 1588.426735 1460.584474 L 1675.088325 1438.72634 C 1675.088325 1438.72634 1688.101939 1488.432794 1676.026515 1528.397631 L 1642.796404 1500.519056 L 1611.669655 1542.102454 C 1611.684787 1542.102454 1611.427541 1477.768446 1588.426735 1460.584474 Z M 1588.426735 1460.584474 " stroke="#000000" stroke-width="1" stroke-opacity="1" stroke-miterlimit="10"/><path stroke-linecap="butt" transform="matrix(0.258143, 0, 0, 0.258235, 44.216367, -34.603463)" fill-opacity="1" fill="#f04d6e" fill-rule="nonzero" stroke-linejoin="miter" d="M 1041.295063 1633.150277 L 1128.365219 1613.48552 C 1128.365219 1613.48552 1141.363701 1662.344877 1129.273146 1702.309714 L 1096.058166 1674.431139 L 1064.931418 1716.014536 C 1064.931418 1716.014536 1064.295869 1650.334249 1041.295063 1633.150277 Z M 1041.295063 1633.150277 " stroke="#000000" stroke-width="1" stroke-opacity="1" stroke-miterlimit="10"/><path stroke-linecap="butt" transform="matrix(0.258143, 0, 0, 0.258235, 44.216367, -34.603463)" fill-opacity="1" fill="#ffffff" fill-rule="nonzero" stroke-linejoin="miter" d="M 1887.724723 1002.894825 L 1896.440818 1220.054246 L 1390.332294 1522.634344 C 1390.332294 1522.634344 1319.438362 1466.922576 1366.393297 1320.117604 Z M 1887.724723 1002.894825 " stroke="#000000" stroke-width="1" stroke-opacity="1" stroke-miterlimit="10"/><path stroke-linecap="butt" transform="matrix(0.258143, 0, 0, 0.258235, 44.216367, -34.603463)" fill-opacity="1" fill="#55c1ae" fill-rule="nonzero" stroke-linejoin="miter" d="M 1892.915037 985.514205 L 1353.742854 1313.355953 L 87.139918 1012.606189 L 653.383444 714.579238 Z M 1892.915037 985.514205 " stroke="#000000" stroke-width="1" stroke-opacity="1" stroke-miterlimit="10"/><g mask="url(#46837a4218)"><g transform="matrix(1, 0, 0, 1, 97, 158)"><g clip-path="url(#280271b33d)"><path fill="#07b28f" d="M 294.621094 135.804688 C 294.441406 135.804688 294.265625 135.785156 294.089844 135.742188 L 3.652344 66.757812 C 2.726562 66.539062 2.03125 65.761719 1.910156 64.816406 C 1.792969 63.871094 2.273438 62.949219 3.117188 62.507812 L 116.566406 2.777344 C 117.042969 2.523438 117.597656 2.449219 118.121094 2.566406 L 403.96875 65.070312 C 404.882812 65.265625 405.582031 66.003906 405.734375 66.925781 C 405.886719 67.847656 405.46875 68.773438 404.667969 69.257812 L 295.808594 135.472656 C 295.449219 135.691406 295.035156 135.804688 294.621094 135.804688 Z M 10.644531 63.710938 L 294.234375 131.070312 L 397.40625 68.316406 L 117.953125 7.214844 Z M 10.644531 63.710938 " fill-opacity="1" fill-rule="nonzero"/><g clip-path="url(#2dd01fa242)"><path stroke-linecap="butt" transform="matrix(0.258143, 0, 0, 0.258235, -52.783633, -192.603459)" fill="none" stroke-linejoin="miter" d="M 1345.783364 1271.742287 C 1345.087287 1271.742287 1344.406342 1271.666653 1343.725397 1271.500259 L 218.622814 1004.362102 C 215.036504 1003.515005 212.342989 1000.504785 211.873894 996.844115 C 211.41993 993.183444 213.28118 989.613535 216.549715 987.904214 L 656.031563 756.601295 C 657.87768 755.618057 660.02644 755.330649 662.054142 755.784451 L 1769.376497 997.827352 C 1772.917411 998.583689 1775.626058 1001.442642 1776.21621 1005.012552 C 1776.806363 1008.582462 1775.187227 1012.167498 1772.085145 1014.043213 L 1350.383525 1270.456514 C 1348.991371 1271.303611 1347.387368 1271.742287 1345.783364 1271.742287 Z M 245.70929 992.563248 L 1344.285285 1253.408683 L 1743.954554 1010.39767 L 661.403462 773.785267 Z M 245.70929 992.563248 " stroke="#000000" stroke-width="1" stroke-opacity="1" stroke-miterlimit="10"/></g></g></g></g><path stroke-linecap="butt" transform="matrix(0.258143, 0, 0, 0.258235, 44.216367, -34.603463)" fill-opacity="1" fill="#00b59c" fill-rule="nonzero" stroke-linejoin="miter" d="M 87.139918 1012.606189 C 87.139918 1012.606189 32.043908 1178.773383 97.066581 1234.77256 C 162.089254 1290.771736 1364.592576 1565.321993 1364.592576 1565.321993 L 1922.316725 1240.324072 L 1923.164123 1204.065286 L 1390.332294 1522.634344 C 1390.332294 1522.634344 1352.396096 1496.903767 1353.742854 1429.166243 C 1355.104744 1361.443846 1366.393297 1320.117604 1366.393297 1320.117604 L 1887.709591 1002.894825 L 1891.613675 985.226797 L 1353.742854 1313.340826 Z M 87.139918 1012.606189 " stroke="#000000" stroke-width="1" stroke-opacity="1" stroke-miterlimit="10"/><path stroke-linecap="butt" transform="matrix(0.258143, 0, 0, 0.258235, 44.216367, -34.603463)" fill-opacity="1" fill="#039e84" fill-rule="nonzero" stroke-linejoin="miter" d="M 1923.164123 1204.065286 L 1895.790137 1204.065286 L 1896.440818 1220.054246 Z M 1923.164123 1204.065286 " stroke="#000000" stroke-width="1" stroke-opacity="1" stroke-miterlimit="10"/><path stroke-linecap="butt" transform="matrix(0.258143, 0, 0, 0.258235, 44.216367, -34.603463)" fill-opacity="1" fill="#65c5b3" fill-rule="nonzero" stroke-linejoin="miter" d="M 288.926594 1060.512562 C 288.926594 1060.512562 200.479415 1221.415652 290.515465 1301.118423 L 337.697382 1314.20305 C 337.697382 1314.20305 259.176867 1220.145006 359.124448 1077.197352 Z M 288.926594 1060.512562 " stroke="#000000" stroke-width="1" stroke-opacity="1" stroke-miterlimit="10"/><path stroke-linecap="butt" transform="matrix(0.258143, 0, 0, 0.258235, 44.216367, -34.603463)" fill-opacity="1" fill="#65c5b3" fill-rule="nonzero" stroke-linejoin="miter" d="M 397.514609 1086.258266 C 397.514609 1086.258266 309.082563 1251.048928 399.133745 1330.766826 L 447.087399 1343.39765 C 447.087399 1343.39765 367.749751 1245.890711 467.712464 1102.927929 Z M 397.514609 1086.258266 " stroke="#000000" stroke-width="1" stroke-opacity="1" stroke-miterlimit="10"/><path stroke-linecap="butt" transform="matrix(0.258143, 0, 0, 0.258235, 44.216367, -34.603463)" fill-opacity="1" fill="#65c5b3" fill-rule="nonzero" stroke-linejoin="miter" d="M 923.885028 1210.705923 C 923.885028 1210.705923 836.527361 1382.848178 926.563411 1462.566076 L 973.684799 1473.835494 C 973.684799 1473.835494 894.120169 1370.32324 994.082882 1227.360459 Z M 923.885028 1210.705923 " stroke="#000000" stroke-width="1" stroke-opacity="1" stroke-miterlimit="10"/><path stroke-linecap="butt" transform="matrix(0.258143, 0, 0, 0.258235, 44.216367, -34.603463)" fill-opacity="1" fill="#65c5b3" fill-rule="nonzero" stroke-linejoin="miter" d="M 1032.473043 1236.436501 C 1032.473043 1236.436501 944.933792 1408.699769 1034.984973 1488.402541 L 1083.044552 1499.777846 C 1083.044552 1499.777846 1002.708185 1396.068945 1102.670898 1253.106164 Z M 1032.473043 1236.436501 " stroke="#000000" stroke-width="1" stroke-opacity="1" stroke-miterlimit="10"/><path stroke-linecap="butt" transform="matrix(0.258143, 0, 0, 0.258235, 44.216367, -34.603463)" fill-opacity="1" fill="#e5e1d3" fill-rule="nonzero" stroke-linejoin="miter" d="M 1874.49926 1060.255407 C 1836.805176 1087.695306 1798.203165 1113.652785 1759.253116 1139.095955 C 1739.884016 1151.953681 1720.166878 1164.266844 1700.616193 1176.837161 L 1641.434514 1213.746397 L 1581.783739 1249.823662 C 1561.70343 1261.577136 1541.834971 1273.602891 1521.588209 1285.05383 C 1481.306534 1308.27337 1440.676821 1330.963473 1399.124049 1352.140904 C 1436.803001 1324.670751 1475.420144 1298.713272 1514.355061 1273.270103 C 1533.724161 1260.412377 1553.456431 1248.114341 1573.007116 1235.528897 L 1632.173663 1198.649914 L 1691.854702 1162.572649 C 1711.919878 1150.834302 1731.818602 1138.823674 1752.050232 1127.342481 C 1792.347039 1104.138068 1832.976752 1081.447964 1874.49926 1060.255407 Z M 1874.49926 1060.255407 " stroke="#000000" stroke-width="1" stroke-opacity="1" stroke-miterlimit="10"/><path stroke-linecap="butt" transform="matrix(0.258143, 0, 0, 0.258235, 44.216367, -34.603463)" fill-opacity="1" fill="#e5e1d3" fill-rule="nonzero" stroke-linejoin="miter" d="M 1868.083245 1171.920972 C 1830.374029 1199.375998 1791.787151 1225.333476 1752.837102 1250.76152 C 1733.45287 1263.619245 1713.750864 1275.932408 1694.185046 1288.502726 L 1635.033632 1325.411961 L 1575.367725 1361.504353 C 1555.302548 1373.2427 1535.418957 1385.268455 1515.187327 1396.734521 C 1474.89052 1419.954061 1434.260807 1442.629038 1392.723167 1463.806468 C 1430.402119 1436.336316 1469.004129 1410.378837 1507.939046 1384.935667 C 1527.323278 1372.077942 1547.040417 1359.779905 1566.591102 1347.194461 L 1625.772781 1310.315479 L 1685.453819 1274.25334 C 1705.503864 1262.499867 1725.402588 1250.489238 1745.634218 1239.023173 C 1785.931025 1215.803633 1826.545606 1193.113529 1868.083245 1171.920972 Z M 1868.083245 1171.920972 " stroke="#000000" stroke-width="1" stroke-opacity="1" stroke-miterlimit="10"/><path stroke-linecap="butt" transform="matrix(0.258143, 0, 0, 0.258235, 44.216367, -34.603463)" fill-opacity="1" fill="#e5e1d3" fill-rule="nonzero" stroke-linejoin="miter" d="M 1869.883966 1116.8294 C 1831.463541 1143.10454 1792.649681 1168.729231 1753.442386 1193.718598 C 1714.325884 1218.844107 1674.846211 1243.394799 1635.290877 1267.809351 C 1595.614487 1292.042382 1555.877568 1316.154399 1515.762347 1339.676473 C 1475.75305 1363.349815 1435.335187 1386.35758 1394.523888 1408.714896 C 1432.929181 1382.439756 1471.743041 1356.799938 1510.950336 1331.825697 C 1550.066838 1306.700189 1589.546511 1282.164623 1629.116977 1257.734945 C 1668.778235 1233.517041 1708.530286 1209.405024 1748.645507 1185.882949 C 1788.654804 1162.224734 1829.072668 1139.216969 1869.883966 1116.8294 Z M 1869.883966 1116.8294 " stroke="#000000" stroke-width="1" stroke-opacity="1" stroke-miterlimit="10"/><path stroke-linecap="butt" transform="matrix(0.258143, 0, 0, 0.258235, 44.216367, -34.603463)" fill-opacity="1" fill="#ffffff" fill-rule="nonzero" stroke-linejoin="miter" d="M 1914.705274 963.852719 L 1911.134096 795.461895 L 699.823887 1073.824089 L 237.583347 801.55797 C 237.583347 801.55797 227.520495 793.056744 218.910324 797.080456 C 210.300154 801.104167 209.573813 808.667535 209.573813 808.667535 L 203.218327 946.850268 C 203.218327 946.850268 202.355797 955.699409 208.786943 959.768501 C 215.202958 963.837593 688.671522 1260.276236 688.671522 1260.276236 Z M 1914.705274 963.852719 " stroke="#000000" stroke-width="1" stroke-opacity="1" stroke-miterlimit="10"/><path stroke-linecap="butt" transform="matrix(0.258143, 0, 0, 0.258235, 44.216367, -34.603463)" fill-opacity="1" fill="#fecf09" fill-rule="nonzero" stroke-linejoin="miter" d="M 1333.526356 439.817207 L 1928.384701 741.459448 L 704.787219 1033.556718 L 188.146746 723.216604 Z M 1333.526356 439.817207 " stroke="#000000" stroke-width="1" stroke-opacity="1" stroke-miterlimit="10"/><g mask="url(#23beb4456f)"><g transform="matrix(1, 0, 0, 1, 116, 86)"><g clip-path="url(#51732199d0)"><path fill="#f9a11b" d="M 111.875 136.695312 C 111.59375 136.695312 111.3125 136.621094 111.066406 136.472656 L 3.070312 71.574219 C 2.527344 71.246094 2.230469 70.625 2.328125 69.996094 C 2.421875 69.371094 2.882812 68.859375 3.5 68.707031 L 270.816406 2.539062 C 271.179688 2.449219 271.566406 2.496094 271.902344 2.664062 L 396.578125 65.910156 C 397.164062 66.207031 397.503906 66.839844 397.425781 67.496094 C 397.351562 68.148438 396.871094 68.683594 396.234375 68.835938 L 112.238281 136.652344 C 112.121094 136.679688 111.996094 136.695312 111.875 136.695312 Z M 7.945312 70.839844 L 112.136719 133.449219 L 391.347656 66.773438 L 271.003906 5.726562 Z M 7.945312 70.839844 " fill-opacity="1" fill-rule="nonzero"/><g clip-path="url(#f7fcc12f4c)"><path stroke-linecap="butt" transform="matrix(0.258143, 0, 0, 0.258235, -71.783633, -120.603459)" fill="none" stroke-linejoin="miter" d="M 711.460479 996.375186 C 710.370967 996.375186 709.281455 996.087778 708.328132 995.512962 L 289.970709 744.197371 C 287.867346 742.926725 286.717306 740.521574 287.095608 738.08617 C 287.458779 735.665892 289.244368 733.68429 291.635241 733.094347 L 1327.17087 476.862567 C 1328.578156 476.514652 1330.076235 476.696173 1331.377596 477.346623 L 1814.349126 722.263604 C 1816.618942 723.413236 1817.935435 725.863767 1817.632793 728.405059 C 1817.345283 730.931224 1815.484034 733.003587 1813.0175 733.593529 L 712.867765 996.208792 C 712.413802 996.314679 711.929574 996.375186 711.460479 996.375186 Z M 308.855582 741.353545 L 712.47433 983.804868 L 1794.087231 725.606613 L 1327.897211 489.205984 Z M 308.855582 741.353545 " stroke="#000000" stroke-width="1" stroke-opacity="1" stroke-miterlimit="10"/></g></g></g></g><path fill="#f9a11b" d="M 544.6875 212.796875 L 544.6875 225.339844 L 223.433594 305.722656 L 87.097656 218.046875 C 87.097656 218.046875 77.234375 183.46875 92.785156 152.15625 L 226.152344 232.296875 L 542.015625 156.871094 L 542.015625 169.792969 L 224.871094 242.695312 L 104.058594 171.507812 C 101.570312 170.035156 98.40625 171.746094 98.277344 174.632812 L 96.660156 210.214844 C 96.605469 211.496094 97.238281 212.707031 98.316406 213.382812 L 221.992188 290.84375 Z M 544.6875 212.796875 " fill-opacity="1" fill-rule="nonzero"/><g clip-path="url(#d6891d84a1)"><path stroke-linecap="butt" transform="matrix(0.258143, 0, 0, 0.258235, 44.216367, -34.603463)" fill="none" stroke-linejoin="miter" d="M 1938.735063 958.044053 L 1938.735063 1006.616002 L 694.255271 1317.893974 L 166.114395 978.374386 C 166.114395 978.374386 127.90582 844.472519 188.146746 723.216604 L 704.787219 1033.556718 L 1928.384701 741.474574 L 1928.384701 791.513817 L 699.823887 1073.824089 L 231.818014 798.154454 C 222.17886 792.451674 209.921852 799.077185 209.422492 810.255843 L 203.157799 948.04528 C 202.945949 953.00685 205.397351 957.696138 209.573813 960.313063 L 688.671522 1260.276236 Z M 1938.735063 958.044053 " stroke="#000000" stroke-width="1" stroke-opacity="1" stroke-miterlimit="10"/></g><g mask="url(#fead3b6d48)"><g transform="matrix(1, 0, 0, 1, 220, 169)"><g clip-path="url(#8959331eeb)"><path fill="#f9a11b" d="M 1.992188 121.84375 L 4.871094 73.695312 L 317.5625 1.816406 L 318.484375 45.296875 Z M 1.992188 121.84375 " fill-opacity="1" fill-rule="nonzero"/><g clip-path="url(#b6cf351f60)"><path stroke-linecap="butt" transform="matrix(0.258143, 0, 0, 0.258235, -175.783626, -203.603459)" fill="none" stroke-linejoin="miter" d="M 688.671494 1260.276221 L 699.823859 1073.824074 L 1911.134068 795.477006 L 1914.705246 963.852703 Z M 688.671494 1260.276221 " stroke="#000000" stroke-width="1" stroke-opacity="1" stroke-miterlimit="10"/></g></g></g></g><path fill="#e98d24" d="M 544.6875 212.796875 L 538.382812 209.382812 L 538.484375 214.296875 Z M 544.6875 212.796875 " fill-opacity="1" fill-rule="nonzero"/><g clip-path="url(#27970d0208)"><path stroke-linecap="butt" transform="matrix(0.258143, 0, 0, 0.258235, 44.216367, -34.603463)" fill="none" stroke-linejoin="miter" d="M 1938.735063 958.044053 L 1914.311839 944.823285 L 1914.705274 963.852719 Z M 1938.735063 958.044053 " stroke="#000000" stroke-width="1" stroke-opacity="1" stroke-miterlimit="10"/></g><path stroke-linecap="butt" transform="matrix(0.258143, 0, 0, 0.258235, 44.216367, -34.603463)" fill-opacity="1" fill="#e98d24" fill-rule="nonzero" stroke-linejoin="miter" d="M 1928.384701 791.49869 L 1911.209757 798.956171 L 1911.134096 795.477022 Z M 1928.384701 791.49869 " stroke="#000000" stroke-width="1" stroke-opacity="1" stroke-miterlimit="10"/><path stroke-linecap="butt" transform="matrix(0.258143, 0, 0, 0.258235, 44.216367, -34.603463)" fill-opacity="1" fill="#fce586" fill-rule="nonzero" stroke-linejoin="miter" d="M 1291.580149 528.626273 L 1612.244675 704.883 L 1489.856176 747.903437 L 1186.41199 557.185551 Z M 1291.580149 528.626273 " stroke="#000000" stroke-width="1" stroke-opacity="1" stroke-miterlimit="10"/><path stroke-linecap="butt" transform="matrix(0.258143, 0, 0, 0.258235, 44.216367, -34.603463)" fill-opacity="1" fill="#fce586" fill-rule="nonzero" stroke-linejoin="miter" d="M 1090.035587 592.430845 L 1393.842943 772.923058 L 1381.525406 780.123385 L 1078.08122 598.466413 Z M 1090.035587 592.430845 " stroke="#000000" stroke-width="1" stroke-opacity="1" stroke-miterlimit="10"/><path stroke-linecap="butt" transform="matrix(0.258143, 0, 0, 0.258235, 44.216367, -34.603463)" fill-opacity="1" fill="#e5e1d3" fill-rule="nonzero" stroke-linejoin="miter" d="M 235.222738 839.359683 C 271.267422 859.765649 306.888407 880.867446 342.342939 902.196144 C 360.123167 912.784859 377.736943 923.645855 395.44151 934.370711 L 448.282836 966.923447 L 500.912311 999.854351 C 518.374765 1010.972502 535.91288 1021.954512 553.284541 1033.193677 C 588.133789 1055.535866 622.816583 1078.120082 657.075678 1101.385002 C 621.046126 1080.979036 585.425141 1059.892366 549.955477 1038.563668 C 532.175249 1027.959826 514.561474 1017.113956 496.856906 1006.373974 L 444.015581 973.806112 L 391.416369 940.875207 C 373.953915 929.772183 356.415801 918.775046 339.044139 907.535881 C 304.194892 885.193692 269.496965 862.624602 235.222738 839.359683 Z M 235.222738 839.359683 " stroke="#000000" stroke-width="1" stroke-opacity="1" stroke-miterlimit="10"/><path stroke-linecap="butt" transform="matrix(0.258143, 0, 0, 0.258235, 44.216367, -34.603463)" fill-opacity="1" fill="#e5e1d3" fill-rule="nonzero" stroke-linejoin="miter" d="M 233.376621 884.981918 C 269.406173 905.387885 305.027158 926.474555 340.496822 947.803252 C 358.261918 958.407094 375.875693 969.252964 393.580261 979.992947 L 446.436718 1012.545682 L 499.051062 1045.476586 C 516.513516 1056.594737 534.051631 1067.576748 551.423292 1078.815912 C 586.272539 1101.142975 620.955334 1123.742318 655.214429 1147.007238 C 619.184877 1126.601271 583.563892 1105.514601 548.094228 1084.185904 C 530.314 1073.582062 512.700225 1062.736192 494.995657 1051.99621 L 442.154331 1019.428347 L 389.55512 986.497443 C 372.092666 975.394419 354.554551 964.397282 337.18289 953.158117 C 302.333642 930.815928 267.635716 908.246838 233.376621 884.981918 Z M 233.376621 884.981918 " stroke="#000000" stroke-width="1" stroke-opacity="1" stroke-miterlimit="10"/><path stroke-linecap="butt" transform="matrix(0.258143, 0, 0, 0.258235, 44.216367, -34.603463)" fill-opacity="1" fill="#e5e1d3" fill-rule="nonzero" stroke-linejoin="miter" d="M 235.222738 932.283221 C 271.267422 952.689188 306.888407 973.775858 342.342939 995.104556 C 360.123167 1005.708398 377.736943 1016.554267 395.44151 1027.29425 L 448.282836 1059.846985 L 500.912311 1092.77789 C 518.374765 1103.89604 535.91288 1114.862924 553.284541 1126.117216 C 588.133789 1148.444278 622.816583 1171.043621 657.075678 1194.293414 C 621.046126 1173.902574 585.425141 1152.815904 549.955477 1131.487207 C 532.175249 1120.883365 514.561474 1110.037495 496.856906 1099.297513 L 444.015581 1066.72965 L 391.416369 1033.783619 C 373.953915 1022.695722 356.415801 1011.698585 339.044139 1000.45942 C 304.194892 978.117231 269.496965 955.533015 235.222738 932.283221 Z M 235.222738 932.283221 " stroke="#000000" stroke-width="1" stroke-opacity="1" stroke-miterlimit="10"/><path stroke-linecap="butt" transform="matrix(0.258143, 0, 0, 0.258235, 44.216367, -34.603463)" fill-opacity="1" fill="#e5e1d3" fill-rule="nonzero" stroke-linejoin="miter" d="M 761.154325 1104.788518 C 853.475324 1079.178954 946.174625 1055.127444 1039.025247 1031.605369 C 1085.405161 1019.715755 1131.921265 1008.370703 1178.37684 996.768497 L 1317.925151 962.808974 L 1457.700444 929.69655 L 1527.671317 913.495815 L 1562.656753 905.403012 L 1597.687586 897.476602 C 1691.082964 876.284045 1784.599399 855.63605 1878.494137 836.576363 C 1786.173138 862.201054 1693.473837 886.267691 1600.638347 909.774638 L 1565.834496 918.623779 L 1530.985249 927.306525 L 1461.286754 944.626638 L 1321.708179 978.555907 L 1181.932886 1011.653205 C 1135.280593 1022.393187 1088.688829 1033.405451 1041.960876 1043.858026 C 948.565498 1065.065709 855.033931 1085.698577 761.154325 1104.788518 Z M 761.154325 1104.788518 " stroke="#000000" stroke-width="1" stroke-opacity="1" stroke-miterlimit="10"/><path stroke-linecap="butt" transform="matrix(0.258143, 0, 0, 0.258235, 44.216367, -34.603463)" fill-opacity="1" fill="#e5e1d3" fill-rule="nonzero" stroke-linejoin="miter" d="M 761.154325 1147.536674 C 853.475324 1121.92711 946.174625 1097.8756 1039.025247 1074.353525 C 1085.405161 1062.463911 1131.921265 1051.118859 1178.37684 1039.516652 L 1317.925151 1005.55713 L 1457.700444 972.444705 L 1527.671317 956.243971 L 1562.656753 948.151167 L 1597.687586 940.224758 C 1691.082964 919.032201 1784.599399 898.384206 1878.494137 879.324519 C 1786.173138 904.94921 1693.473837 929.015846 1600.638347 952.522794 L 1565.834496 961.371935 L 1530.985249 970.054681 L 1461.286754 987.374794 L 1321.708179 1021.304062 L 1181.932886 1054.401361 C 1135.280593 1065.15647 1088.688829 1076.153607 1041.960876 1086.606181 C 948.565498 1107.798738 855.033931 1128.446733 761.154325 1147.536674 Z M 761.154325 1147.536674 " stroke="#000000" stroke-width="1" stroke-opacity="1" stroke-miterlimit="10"/><path stroke-linecap="butt" transform="matrix(0.258143, 0, 0, 0.258235, 44.216367, -34.603463)" fill-opacity="1" fill="#e5e1d3" fill-rule="nonzero" stroke-linejoin="miter" d="M 761.154325 1194.928737 C 853.475324 1169.319173 946.174625 1145.252537 1039.025247 1121.745589 C 1085.405161 1109.855974 1131.921265 1098.510922 1178.37684 1086.908716 L 1317.925151 1052.949194 L 1457.700444 1019.836769 L 1527.671317 1003.636035 L 1562.656753 995.543231 L 1597.687586 987.616821 C 1691.082964 966.424264 1784.599399 945.77627 1878.494137 926.716583 C 1786.173138 952.341273 1693.473837 976.40791 1600.638347 999.914858 L 1565.834496 1008.763998 L 1530.985249 1017.446745 L 1461.286754 1034.766857 L 1321.708179 1068.696126 L 1181.932886 1101.793424 C 1135.280593 1112.533407 1088.688829 1123.54567 1041.960876 1133.998245 C 948.565498 1155.190802 855.033931 1175.82367 761.154325 1194.928737 Z M 761.154325 1194.928737 " stroke="#000000" stroke-width="1" stroke-opacity="1" stroke-miterlimit="10"/><path stroke-linecap="butt" transform="matrix(0.258143, 0, 0, 0.258235, 44.216367, -34.603463)" fill-opacity="1" fill="#f04d6e" fill-rule="nonzero" stroke-linejoin="miter" d="M 1628.193918 902.362538 L 1714.87064 880.504404 C 1714.87064 880.504404 1727.884254 930.225985 1715.793698 970.175695 L 1682.578719 942.297121 L 1651.45197 983.880518 C 1651.467102 983.880518 1651.194724 919.54651 1628.193918 902.362538 Z M 1628.193918 902.362538 " stroke="#000000" stroke-width="1" stroke-opacity="1" stroke-miterlimit="10"/><path stroke-linecap="butt" transform="matrix(0.258143, 0, 0, 0.258235, 44.216367, -34.603463)" fill-opacity="1" fill="#f04d6e" fill-rule="nonzero" stroke-linejoin="miter" d="M 1081.077378 1074.928341 L 1168.132402 1055.263584 C 1168.132402 1055.263584 1181.146016 1104.122942 1169.055461 1144.087778 L 1135.840481 1116.209204 L 1104.713733 1157.792601 C 1104.713733 1157.792601 1104.063052 1092.12744 1081.077378 1074.928341 Z M 1081.077378 1074.928341 " stroke="#000000" stroke-width="1" stroke-opacity="1" stroke-miterlimit="10"/><path stroke-linecap="butt" transform="matrix(0.258143, 0, 0, 0.258235, 44.216367, -34.603463)" fill-opacity="1" fill="#ffffff" fill-rule="nonzero" stroke-linejoin="miter" d="M 161.453706 654.268942 L 166.280849 485.908371 L 1375.502827 773.255847 L 1839.740805 504.438622 C 1839.740805 504.438622 1849.864186 496.013031 1858.444092 500.097249 C 1867.023998 504.196595 1867.704943 511.744836 1867.704943 511.744836 L 1873.046577 649.972949 C 1873.046577 649.972949 1873.833447 658.837216 1867.387168 662.860928 C 1860.925758 666.88464 1385.263037 959.783627 1385.263037 959.783627 Z M 161.453706 654.268942 " stroke="#000000" stroke-width="1" stroke-opacity="1" stroke-miterlimit="10"/><path stroke-linecap="butt" transform="matrix(0.258143, 0, 0, 0.258235, 44.216367, -34.603463)" fill-opacity="1" fill="#f0536d" fill-rule="nonzero" stroke-linejoin="miter" d="M 746.521576 134.559676 L 149.438811 431.78491 L 1370.857269 732.958222 L 1889.767558 426.460299 Z M 746.521576 134.559676 " stroke="#000000" stroke-width="1" stroke-opacity="1" stroke-miterlimit="10"/><g mask="url(#59249593d0)"><g transform="matrix(1, 0, 0, 1, 109, 8)"><g clip-path="url(#f2709b2287)"><path fill="#ffffff" d="M 287.4375 137.058594 C 287.71875 137.0625 288 136.984375 288.246094 136.839844 L 396.722656 72.746094 C 397.269531 72.421875 397.566406 71.800781 397.476562 71.171875 C 397.386719 70.542969 396.929688 70.03125 396.3125 69.875 L 129.496094 1.726562 C 129.132812 1.632812 128.742188 1.671875 128.40625 1.839844 L 3.269531 64.160156 C 2.679688 64.453125 2.335938 65.082031 2.410156 65.738281 C 2.480469 66.390625 2.953125 66.929688 3.59375 67.085938 L 287.074219 137.011719 C 287.191406 137.042969 287.316406 137.058594 287.4375 137.058594 Z M 391.855469 71.976562 L 287.199219 133.8125 L 8.492188 65.0625 L 129.285156 4.910156 Z M 391.855469 71.976562 " fill-opacity="1" fill-rule="nonzero"/><g clip-path="url(#cfa4983264)"><path stroke-linecap="butt" transform="matrix(0.258143, 0, 0, 0.258235, -64.783633, -42.603464)" fill="none" stroke-linejoin="miter" d="M 1364.441255 695.731328 C 1365.530767 695.746455 1366.620279 695.44392 1367.573602 694.884231 L 1787.792274 446.684747 C 1789.910769 445.429228 1791.06081 443.024077 1790.712771 440.588673 C 1790.364733 438.153268 1788.594276 436.171666 1786.203403 435.566597 L 752.604684 171.665562 C 751.197398 171.30252 749.684187 171.453787 748.382825 172.104237 L 263.625707 413.436182 C 261.340759 414.570687 260.009133 417.006092 260.296643 419.547383 C 260.569021 422.073548 262.400006 424.161038 264.881672 424.766107 L 1363.033969 695.549807 C 1363.487932 695.670821 1363.97216 695.731328 1364.441255 695.731328 Z M 1768.937666 443.70478 L 1363.518196 683.16101 L 283.857337 416.930458 L 751.78755 183.993851 Z M 1768.937666 443.70478 " stroke="#000000" stroke-width="1" stroke-opacity="1" stroke-miterlimit="10"/></g></g></g></g><path stroke-linecap="butt" transform="matrix(0.258143, 0, 0, 0.258235, 44.216367, -34.603463)" fill-opacity="1" fill="#ed184a" fill-rule="nonzero" stroke-linejoin="miter" d="M 137.484445 648.293881 L 137.121274 696.86583 L 1379.25559 1017.371111 L 1909.908395 681.784474 C 1909.908395 681.784474 1949.100558 548.170016 1889.767558 426.460299 L 1370.842137 732.958222 L 149.438811 431.78491 L 149.07564 481.824152 L 1375.502827 773.255847 L 1845.536403 501.080487 C 1855.20582 495.438215 1867.417433 502.154485 1867.841132 513.34827 L 1873.076841 651.183088 C 1873.258427 656.12953 1870.776761 660.803692 1866.554902 663.40549 L 1385.247905 959.798754 Z M 137.484445 648.293881 " stroke="#000000" stroke-width="1" stroke-opacity="1" stroke-miterlimit="10"/><g mask="url(#afebc55651)"><g transform="matrix(1, 0, 0, 1, 84, 89)"><g clip-path="url(#57e986907c)"><path fill="#f9a11b" d="M 317.8125 124.246094 L 315.292969 76.078125 L 3.140625 1.878906 L 1.894531 45.351562 Z M 317.8125 124.246094 " fill-opacity="1" fill-rule="nonzero"/><g clip-path="url(#acbe3c2b30)"><path stroke-linecap="butt" transform="matrix(0.258143, 0, 0, 0.258235, -39.783633, -123.603459)" fill="none" stroke-linejoin="miter" d="M 1385.263034 959.783612 L 1375.502824 773.255831 L 166.280846 485.923482 L 161.453703 654.268926 Z M 1385.263034 959.783612 " stroke="#000000" stroke-width="1" stroke-opacity="1" stroke-miterlimit="10"/></g></g></g></g><path stroke-linecap="butt" transform="matrix(0.258143, 0, 0, 0.258235, 44.216367, -34.603463)" fill-opacity="1" fill="#e98d24" fill-rule="nonzero" stroke-linejoin="miter" d="M 137.484445 648.293881 L 162.013594 635.254635 L 161.453706 654.268942 Z M 137.484445 648.293881 " stroke="#000000" stroke-width="1" stroke-opacity="1" stroke-miterlimit="10"/><path stroke-linecap="butt" transform="matrix(0.258143, 0, 0, 0.258235, 44.216367, -34.603463)" fill-opacity="1" fill="#e98d24" fill-rule="nonzero" stroke-linejoin="miter" d="M 149.07564 481.824152 L 166.174924 489.402647 L 166.280849 485.923498 Z M 149.07564 481.824152 " stroke="#000000" stroke-width="1" stroke-opacity="1" stroke-miterlimit="10"/><path stroke-linecap="butt" transform="matrix(0.258143, 0, 0, 0.258235, 44.216367, -34.603463)" fill-opacity="1" fill="#f7acbc" fill-rule="nonzero" stroke-linejoin="miter" d="M 787.817102 223.686404 L 465.851214 397.553106 L 587.906807 441.496274 L 892.758279 253.032271 Z M 787.817102 223.686404 " stroke="#000000" stroke-width="1" stroke-opacity="1" stroke-miterlimit="10"/><path stroke-linecap="butt" transform="matrix(0.258143, 0, 0, 0.258235, 44.216367, -34.603463)" fill-opacity="1" fill="#f7acbc" fill-rule="nonzero" stroke-linejoin="miter" d="M 988.862305 288.973396 L 683.723323 467.211725 L 695.995463 474.502812 L 1000.786407 295.099724 Z M 988.862305 288.973396 " stroke="#000000" stroke-width="1" stroke-opacity="1" stroke-miterlimit="10"/><path stroke-linecap="butt" transform="matrix(0.258143, 0, 0, 0.258235, 44.216367, -34.603463)" fill-opacity="1" fill="#e5e1d3" fill-rule="nonzero" stroke-linejoin="miter" d="M 1841.813904 542.255462 C 1805.633031 562.389148 1769.860725 583.218663 1734.224607 604.27508 C 1716.383851 614.742781 1698.679283 625.45251 1680.899055 636.056352 L 1627.815616 668.230919 L 1574.944026 700.768528 C 1557.405911 711.750538 1539.792136 722.596408 1522.329682 733.714559 C 1487.313982 755.784467 1452.464734 778.126656 1418.024054 801.134421 C 1454.220059 781.000735 1490.007497 760.17122 1525.61335 739.114804 C 1543.469239 728.647102 1561.173807 717.922247 1578.938903 707.318405 L 1632.022342 675.143837 L 1684.878799 642.591102 C 1702.416914 631.624218 1720.045821 620.763222 1737.493143 609.645071 C 1772.523976 587.575163 1807.373223 565.263228 1841.813904 542.255462 Z M 1841.813904 542.255462 " stroke="#000000" stroke-width="1" stroke-opacity="1" stroke-miterlimit="10"/><path stroke-linecap="butt" transform="matrix(0.258143, 0, 0, 0.258235, 44.216367, -34.603463)" fill-opacity="1" fill="#e5e1d3" fill-rule="nonzero" stroke-linejoin="miter" d="M 1843.342247 587.877698 C 1807.146242 608.02651 1771.373935 628.856025 1735.75295 649.912442 C 1717.897062 660.380143 1700.192494 671.089872 1682.427398 681.693714 L 1629.328826 713.853155 L 1576.472369 746.40589 C 1558.934254 757.372774 1541.305347 768.23377 1523.842893 779.336794 C 1488.842325 801.421829 1453.993077 823.748891 1419.552397 846.756656 C 1455.73327 826.622971 1491.520708 805.793456 1527.141693 784.737039 C 1544.98245 774.269338 1562.687018 763.544482 1580.467246 752.955767 L 1633.535553 720.766073 L 1686.407142 688.213337 C 1703.945257 677.246454 1721.559032 666.385457 1739.021486 655.282433 C 1774.037187 633.212525 1808.901566 610.885463 1843.342247 587.877698 Z M 1843.342247 587.877698 " stroke="#000000" stroke-width="1" stroke-opacity="1" stroke-miterlimit="10"/><path stroke-linecap="butt" transform="matrix(0.258143, 0, 0, 0.258235, 44.216367, -34.603463)" fill-opacity="1" fill="#e5e1d3" fill-rule="nonzero" stroke-linejoin="miter" d="M 1841.132959 635.163874 C 1804.936954 655.312687 1769.164648 676.142202 1733.543662 697.198618 C 1715.687774 707.66632 1697.983206 718.376049 1680.202978 728.979891 L 1627.119539 761.154458 L 1574.263081 793.692067 C 1556.724967 804.674077 1539.096059 815.519947 1521.633605 826.622971 C 1486.633037 848.708005 1451.783789 871.035068 1417.343109 894.042833 C 1453.523982 873.924274 1489.31142 853.094759 1524.932405 832.023216 C 1542.773162 821.555514 1560.47773 810.845785 1578.242826 800.241943 L 1631.326265 768.067376 L 1684.182722 735.51464 C 1701.735969 724.53263 1719.349744 713.686761 1736.812198 702.56861 C 1771.827899 680.483575 1806.692278 658.17164 1841.132959 635.163874 Z M 1841.132959 635.163874 " stroke="#000000" stroke-width="1" stroke-opacity="1" stroke-miterlimit="10"/><path stroke-linecap="butt" transform="matrix(0.258143, 0, 0, 0.258235, 44.216367, -34.603463)" fill-opacity="1" fill="#e5e1d3" fill-rule="nonzero" stroke-linejoin="miter" d="M 1313.945407 803.7816 C 1221.805994 777.476206 1129.288278 752.743993 1036.634373 728.541215 C 990.345251 716.288559 943.91994 704.610719 897.555158 692.660598 L 758.233828 657.657331 L 618.715782 623.516288 L 548.865965 606.786118 L 513.941057 598.43616 L 478.970753 590.252595 C 385.741828 568.364208 292.376715 547.035511 198.618166 527.264867 C 290.742447 553.585387 383.275295 578.332727 475.929199 602.535505 L 510.672522 611.626673 L 545.446109 620.566574 L 615.023547 638.400996 L 754.329744 673.374009 L 893.847791 707.515052 C 940.424423 718.60295 986.940527 729.963128 1033.592819 740.763618 C 1126.836876 762.652005 1220.20199 783.995829 1313.945407 803.7816 Z M 1313.945407 803.7816 " stroke="#000000" stroke-width="1" stroke-opacity="1" stroke-miterlimit="10"/><path stroke-linecap="butt" transform="matrix(0.258143, 0, 0, 0.258235, 44.216367, -34.603463)" fill-opacity="1" fill="#e5e1d3" fill-rule="nonzero" stroke-linejoin="miter" d="M 1313.627632 846.514629 C 1221.488219 820.224362 1128.970504 795.477022 1036.316599 771.274244 C 990.027477 759.036715 943.602166 747.343748 897.237383 735.393627 L 757.916054 700.405486 L 618.398007 666.249317 L 548.548191 649.519147 L 513.623283 641.169188 L 478.652979 632.985624 C 385.424054 611.097237 292.043808 589.76854 198.300392 569.997896 C 290.424673 596.318416 382.95752 621.065756 475.611425 645.268534 L 510.354748 654.374829 L 545.128335 663.299603 L 614.705773 681.134025 L 754.01197 716.122165 L 893.530017 750.248081 C 940.106649 761.351105 986.622752 772.711284 1033.275045 783.496647 C 1126.50397 805.385034 1219.884216 826.728858 1313.627632 846.514629 Z M 1313.627632 846.514629 " stroke="#000000" stroke-width="1" stroke-opacity="1" stroke-miterlimit="10"/><path stroke-linecap="butt" transform="matrix(0.258143, 0, 0, 0.258235, 44.216367, -34.603463)" fill-opacity="1" fill="#e5e1d3" fill-rule="nonzero" stroke-linejoin="miter" d="M 1313.279594 893.906692 C 1221.140181 867.601299 1128.622465 842.853959 1035.968561 818.666308 C 989.679439 806.413652 943.254128 794.735812 896.874213 782.78569 L 757.568016 747.782423 L 618.049969 713.626254 L 548.200153 696.896084 L 513.275245 688.546125 L 478.30494 680.362561 C 385.076016 658.474174 291.69577 637.145477 197.952353 617.374833 C 290.076634 643.695353 382.59435 668.442693 475.263386 692.645471 L 510.006709 701.751766 L 544.780296 710.67654 L 614.342602 728.526088 L 753.663931 763.499102 L 893.181978 797.625018 C 939.75861 808.728042 986.274714 820.088221 1032.927007 830.873584 C 1126.155931 852.777097 1219.536177 874.120922 1313.279594 893.906692 Z M 1313.279594 893.906692 " stroke="#000000" stroke-width="1" stroke-opacity="1" stroke-miterlimit="10"/><path stroke-linecap="butt" transform="matrix(0.258143, 0, 0, 0.258235, 44.216367, -34.603463)" fill-opacity="1" fill="#f04d6e" fill-rule="nonzero" stroke-linejoin="miter" d="M 448.419025 594.91163 L 361.908756 572.418174 C 361.908756 572.418174 348.531972 622.033868 360.304753 662.074338 L 393.731582 634.452918 L 424.555688 676.263216 C 424.555688 676.263216 425.297162 611.929208 448.419025 594.91163 Z M 448.419025 594.91163 " stroke="#000000" stroke-width="1" stroke-opacity="1" stroke-miterlimit="10"/><path stroke-linecap="butt" transform="matrix(0.258143, 0, 0, 0.258235, 44.216367, -34.603463)" fill-opacity="1" fill="#f04d6e" fill-rule="nonzero" stroke-linejoin="miter" d="M 994.264468 771.546525 L 907.345632 751.231319 C 907.345632 751.231319 893.98398 799.999916 905.756761 840.055512 L 939.18359 812.418966 L 969.992564 854.229264 C 969.992564 854.229264 971.127473 788.548977 994.264468 771.546525 Z M 994.264468 771.546525 " stroke="#000000" stroke-width="1" stroke-opacity="1" stroke-miterlimit="10"/><g mask="url(#b7ae0275a9)"><g transform="matrix(1, 0, 0, 1, 493, 147)"><g clip-path="url(#3ac7620fef)"><path fill="#010101" d="M 32.847656 1.664062 L 42.523438 6.578125 L 2.214844 21.042969 Z M 32.847656 1.664062 " fill-opacity="1" fill-rule="nonzero"/><g clip-path="url(#e93bc45853)"><path stroke-linecap="butt" transform="matrix(0.258143, 0, 0, 0.258235, -448.783617, -181.603459)" fill="none" stroke-linejoin="miter" d="M 1865.752835 709.693286 L 1903.23507 728.72272 L 1747.086835 784.737023 Z M 1865.752835 709.693286 " stroke="#000000" stroke-width="1" stroke-opacity="1" stroke-miterlimit="10"/></g></g></g></g></svg>